<?xml version="1.0" encoding="utf-8" standalone="no"?>
<!DOCTYPE svg PUBLIC "-//W3C//DTD SVG 1.1//EN"
  "http://www.w3.org/Graphics/SVG/1.1/DTD/svg11.dtd">
<svg height="360pt" version="1.1" viewBox="0 0 576 360" width="576pt" xmlns="http://www.w3.org/2000/svg" xmlns:xlink="http://www.w3.org/1999/xlink">
 <metadata>
  <rdf:RDF xmlns:cc="http://creativecommons.org/ns#" xmlns:dc="http://purl.org/dc/elements/1.1/" xmlns:rdf="http://www.w3.org/1999/02/22-rdf-syntax-ns#">
   <cc:Work>
    <dc:type rdf:resource="http://purl.org/dc/dcmitype/StillImage"/>
    <dc:date>2023-04-27T16:37:06.000524</dc:date>
    <dc:format>image/svg+xml</dc:format>
    <dc:creator>
     <cc:Agent>
      <dc:title>Matplotlib v3.4.3, https://matplotlib.org/</dc:title>
     </cc:Agent>
    </dc:creator>
   </cc:Work>
  </rdf:RDF>
 </metadata>
 <defs>
  <style type="text/css">*{stroke-linecap:butt;stroke-linejoin:round;}</style>
 </defs>
 <g id="figure_1">
  <g id="patch_1">
   <path d="M 0 360 
L 576 360 
L 576 0 
L 0 0 
z
" style="fill:#ffffff;"/>
  </g>
  <g id="axes_1">
   <g id="patch_2">
    <path d="M 72 320.4 
L 518.4 320.4 
L 518.4 43.2 
L 72 43.2 
z
" style="fill:#ffffff;"/>
   </g>
   <g id="matplotlib.axis_1">
    <g id="xtick_1">
     <g id="line2d_1">
      <defs>
       <path d="M 0 0 
L 0 3.5 
" id="m080579710c" style="stroke:#000000;stroke-width:0.8;"/>
      </defs>
      <g>
       <use style="stroke:#000000;stroke-width:0.8;" x="72" xlink:href="#m080579710c" y="320.4"/>
      </g>
     </g>
     <g id="text_1">
      <!-- −4 -->
      <g transform="translate(64.628906 334.998438)scale(0.1 -0.1)">
       <defs>
        <path d="M 678 2272 
L 4684 2272 
L 4684 1741 
L 678 1741 
L 678 2272 
z
" id="DejaVuSans-2212" transform="scale(0.015625)"/>
        <path d="M 2419 4116 
L 825 1625 
L 2419 1625 
L 2419 4116 
z
M 2253 4666 
L 3047 4666 
L 3047 1625 
L 3713 1625 
L 3713 1100 
L 3047 1100 
L 3047 0 
L 2419 0 
L 2419 1100 
L 313 1100 
L 313 1709 
L 2253 4666 
z
" id="DejaVuSans-34" transform="scale(0.015625)"/>
       </defs>
       <use xlink:href="#DejaVuSans-2212"/>
       <use x="83.789062" xlink:href="#DejaVuSans-34"/>
      </g>
     </g>
    </g>
    <g id="xtick_2">
     <g id="line2d_2">
      <g>
       <use style="stroke:#000000;stroke-width:0.8;" x="127.8" xlink:href="#m080579710c" y="320.4"/>
      </g>
     </g>
     <g id="text_2">
      <!-- −3 -->
      <g transform="translate(120.428906 334.998438)scale(0.1 -0.1)">
       <defs>
        <path d="M 2597 2516 
Q 3050 2419 3304 2112 
Q 3559 1806 3559 1356 
Q 3559 666 3084 287 
Q 2609 -91 1734 -91 
Q 1441 -91 1130 -33 
Q 819 25 488 141 
L 488 750 
Q 750 597 1062 519 
Q 1375 441 1716 441 
Q 2309 441 2620 675 
Q 2931 909 2931 1356 
Q 2931 1769 2642 2001 
Q 2353 2234 1838 2234 
L 1294 2234 
L 1294 2753 
L 1863 2753 
Q 2328 2753 2575 2939 
Q 2822 3125 2822 3475 
Q 2822 3834 2567 4026 
Q 2313 4219 1838 4219 
Q 1578 4219 1281 4162 
Q 984 4106 628 3988 
L 628 4550 
Q 988 4650 1302 4700 
Q 1616 4750 1894 4750 
Q 2613 4750 3031 4423 
Q 3450 4097 3450 3541 
Q 3450 3153 3228 2886 
Q 3006 2619 2597 2516 
z
" id="DejaVuSans-33" transform="scale(0.015625)"/>
       </defs>
       <use xlink:href="#DejaVuSans-2212"/>
       <use x="83.789062" xlink:href="#DejaVuSans-33"/>
      </g>
     </g>
    </g>
    <g id="xtick_3">
     <g id="line2d_3">
      <g>
       <use style="stroke:#000000;stroke-width:0.8;" x="183.6" xlink:href="#m080579710c" y="320.4"/>
      </g>
     </g>
     <g id="text_3">
      <!-- −2 -->
      <g transform="translate(176.228906 334.998438)scale(0.1 -0.1)">
       <defs>
        <path d="M 1228 531 
L 3431 531 
L 3431 0 
L 469 0 
L 469 531 
Q 828 903 1448 1529 
Q 2069 2156 2228 2338 
Q 2531 2678 2651 2914 
Q 2772 3150 2772 3378 
Q 2772 3750 2511 3984 
Q 2250 4219 1831 4219 
Q 1534 4219 1204 4116 
Q 875 4013 500 3803 
L 500 4441 
Q 881 4594 1212 4672 
Q 1544 4750 1819 4750 
Q 2544 4750 2975 4387 
Q 3406 4025 3406 3419 
Q 3406 3131 3298 2873 
Q 3191 2616 2906 2266 
Q 2828 2175 2409 1742 
Q 1991 1309 1228 531 
z
" id="DejaVuSans-32" transform="scale(0.015625)"/>
       </defs>
       <use xlink:href="#DejaVuSans-2212"/>
       <use x="83.789062" xlink:href="#DejaVuSans-32"/>
      </g>
     </g>
    </g>
    <g id="xtick_4">
     <g id="line2d_4">
      <g>
       <use style="stroke:#000000;stroke-width:0.8;" x="239.4" xlink:href="#m080579710c" y="320.4"/>
      </g>
     </g>
     <g id="text_4">
      <!-- −1 -->
      <g transform="translate(232.028906 334.998438)scale(0.1 -0.1)">
       <defs>
        <path d="M 794 531 
L 1825 531 
L 1825 4091 
L 703 3866 
L 703 4441 
L 1819 4666 
L 2450 4666 
L 2450 531 
L 3481 531 
L 3481 0 
L 794 0 
L 794 531 
z
" id="DejaVuSans-31" transform="scale(0.015625)"/>
       </defs>
       <use xlink:href="#DejaVuSans-2212"/>
       <use x="83.789062" xlink:href="#DejaVuSans-31"/>
      </g>
     </g>
    </g>
    <g id="xtick_5">
     <g id="line2d_5">
      <g>
       <use style="stroke:#000000;stroke-width:0.8;" x="295.2" xlink:href="#m080579710c" y="320.4"/>
      </g>
     </g>
     <g id="text_5">
      <!-- 0 -->
      <g transform="translate(292.01875 334.998438)scale(0.1 -0.1)">
       <defs>
        <path d="M 2034 4250 
Q 1547 4250 1301 3770 
Q 1056 3291 1056 2328 
Q 1056 1369 1301 889 
Q 1547 409 2034 409 
Q 2525 409 2770 889 
Q 3016 1369 3016 2328 
Q 3016 3291 2770 3770 
Q 2525 4250 2034 4250 
z
M 2034 4750 
Q 2819 4750 3233 4129 
Q 3647 3509 3647 2328 
Q 3647 1150 3233 529 
Q 2819 -91 2034 -91 
Q 1250 -91 836 529 
Q 422 1150 422 2328 
Q 422 3509 836 4129 
Q 1250 4750 2034 4750 
z
" id="DejaVuSans-30" transform="scale(0.015625)"/>
       </defs>
       <use xlink:href="#DejaVuSans-30"/>
      </g>
     </g>
    </g>
    <g id="xtick_6">
     <g id="line2d_6">
      <g>
       <use style="stroke:#000000;stroke-width:0.8;" x="351" xlink:href="#m080579710c" y="320.4"/>
      </g>
     </g>
     <g id="text_6">
      <!-- 1 -->
      <g transform="translate(347.81875 334.998438)scale(0.1 -0.1)">
       <use xlink:href="#DejaVuSans-31"/>
      </g>
     </g>
    </g>
    <g id="xtick_7">
     <g id="line2d_7">
      <g>
       <use style="stroke:#000000;stroke-width:0.8;" x="406.8" xlink:href="#m080579710c" y="320.4"/>
      </g>
     </g>
     <g id="text_7">
      <!-- 2 -->
      <g transform="translate(403.61875 334.998438)scale(0.1 -0.1)">
       <use xlink:href="#DejaVuSans-32"/>
      </g>
     </g>
    </g>
    <g id="xtick_8">
     <g id="line2d_8">
      <g>
       <use style="stroke:#000000;stroke-width:0.8;" x="462.6" xlink:href="#m080579710c" y="320.4"/>
      </g>
     </g>
     <g id="text_8">
      <!-- 3 -->
      <g transform="translate(459.41875 334.998438)scale(0.1 -0.1)">
       <use xlink:href="#DejaVuSans-33"/>
      </g>
     </g>
    </g>
    <g id="xtick_9">
     <g id="line2d_9">
      <g>
       <use style="stroke:#000000;stroke-width:0.8;" x="518.4" xlink:href="#m080579710c" y="320.4"/>
      </g>
     </g>
     <g id="text_9">
      <!-- 4 -->
      <g transform="translate(515.21875 334.998438)scale(0.1 -0.1)">
       <use xlink:href="#DejaVuSans-34"/>
      </g>
     </g>
    </g>
    <g id="text_10">
     <!-- $x$ -->
     <g transform="translate(292.2 348.676562)scale(0.1 -0.1)">
      <defs>
       <path d="M 3841 3500 
L 2234 1784 
L 3219 0 
L 2559 0 
L 1819 1388 
L 531 0 
L -166 0 
L 1556 1844 
L 641 3500 
L 1300 3500 
L 1972 2234 
L 3144 3500 
L 3841 3500 
z
" id="DejaVuSans-Oblique-78" transform="scale(0.015625)"/>
      </defs>
      <use transform="translate(0 0.3125)" xlink:href="#DejaVuSans-Oblique-78"/>
     </g>
    </g>
   </g>
   <g id="matplotlib.axis_2">
    <g id="ytick_1">
     <g id="line2d_10">
      <defs>
       <path d="M 0 0 
L -3.5 0 
" id="me6b4361aee" style="stroke:#000000;stroke-width:0.8;"/>
      </defs>
      <g>
       <use style="stroke:#000000;stroke-width:0.8;" x="72" xlink:href="#me6b4361aee" y="315.929032"/>
      </g>
     </g>
     <g id="text_11">
      <!-- 0 -->
      <g transform="translate(58.6375 319.728251)scale(0.1 -0.1)">
       <use xlink:href="#DejaVuSans-30"/>
      </g>
     </g>
    </g>
    <g id="ytick_2">
     <g id="line2d_11">
      <g>
       <use style="stroke:#000000;stroke-width:0.8;" x="72" xlink:href="#me6b4361aee" y="271.219355"/>
      </g>
     </g>
     <g id="text_12">
      <!-- 1 -->
      <g transform="translate(58.6375 275.018574)scale(0.1 -0.1)">
       <use xlink:href="#DejaVuSans-31"/>
      </g>
     </g>
    </g>
    <g id="ytick_3">
     <g id="line2d_12">
      <g>
       <use style="stroke:#000000;stroke-width:0.8;" x="72" xlink:href="#me6b4361aee" y="226.509677"/>
      </g>
     </g>
     <g id="text_13">
      <!-- 2 -->
      <g transform="translate(58.6375 230.308896)scale(0.1 -0.1)">
       <use xlink:href="#DejaVuSans-32"/>
      </g>
     </g>
    </g>
    <g id="ytick_4">
     <g id="line2d_13">
      <g>
       <use style="stroke:#000000;stroke-width:0.8;" x="72" xlink:href="#me6b4361aee" y="181.8"/>
      </g>
     </g>
     <g id="text_14">
      <!-- 3 -->
      <g transform="translate(58.6375 185.599219)scale(0.1 -0.1)">
       <use xlink:href="#DejaVuSans-33"/>
      </g>
     </g>
    </g>
    <g id="ytick_5">
     <g id="line2d_14">
      <g>
       <use style="stroke:#000000;stroke-width:0.8;" x="72" xlink:href="#me6b4361aee" y="137.090323"/>
      </g>
     </g>
     <g id="text_15">
      <!-- 4 -->
      <g transform="translate(58.6375 140.889541)scale(0.1 -0.1)">
       <use xlink:href="#DejaVuSans-34"/>
      </g>
     </g>
    </g>
    <g id="ytick_6">
     <g id="line2d_15">
      <g>
       <use style="stroke:#000000;stroke-width:0.8;" x="72" xlink:href="#me6b4361aee" y="92.380645"/>
      </g>
     </g>
     <g id="text_16">
      <!-- 5 -->
      <g transform="translate(58.6375 96.179864)scale(0.1 -0.1)">
       <defs>
        <path d="M 691 4666 
L 3169 4666 
L 3169 4134 
L 1269 4134 
L 1269 2991 
Q 1406 3038 1543 3061 
Q 1681 3084 1819 3084 
Q 2600 3084 3056 2656 
Q 3513 2228 3513 1497 
Q 3513 744 3044 326 
Q 2575 -91 1722 -91 
Q 1428 -91 1123 -41 
Q 819 9 494 109 
L 494 744 
Q 775 591 1075 516 
Q 1375 441 1709 441 
Q 2250 441 2565 725 
Q 2881 1009 2881 1497 
Q 2881 1984 2565 2268 
Q 2250 2553 1709 2553 
Q 1456 2553 1204 2497 
Q 953 2441 691 2322 
L 691 4666 
z
" id="DejaVuSans-35" transform="scale(0.015625)"/>
       </defs>
       <use xlink:href="#DejaVuSans-35"/>
      </g>
     </g>
    </g>
    <g id="ytick_7">
     <g id="line2d_16">
      <g>
       <use style="stroke:#000000;stroke-width:0.8;" x="72" xlink:href="#me6b4361aee" y="47.670968"/>
      </g>
     </g>
     <g id="text_17">
      <!-- 6 -->
      <g transform="translate(58.6375 51.470186)scale(0.1 -0.1)">
       <defs>
        <path d="M 2113 2584 
Q 1688 2584 1439 2293 
Q 1191 2003 1191 1497 
Q 1191 994 1439 701 
Q 1688 409 2113 409 
Q 2538 409 2786 701 
Q 3034 994 3034 1497 
Q 3034 2003 2786 2293 
Q 2538 2584 2113 2584 
z
M 3366 4563 
L 3366 3988 
Q 3128 4100 2886 4159 
Q 2644 4219 2406 4219 
Q 1781 4219 1451 3797 
Q 1122 3375 1075 2522 
Q 1259 2794 1537 2939 
Q 1816 3084 2150 3084 
Q 2853 3084 3261 2657 
Q 3669 2231 3669 1497 
Q 3669 778 3244 343 
Q 2819 -91 2113 -91 
Q 1303 -91 875 529 
Q 447 1150 447 2328 
Q 447 3434 972 4092 
Q 1497 4750 2381 4750 
Q 2619 4750 2861 4703 
Q 3103 4656 3366 4563 
z
" id="DejaVuSans-36" transform="scale(0.015625)"/>
       </defs>
       <use xlink:href="#DejaVuSans-36"/>
      </g>
     </g>
    </g>
   </g>
   <g id="line2d_17">
    <path clip-path="url(#p76b2437ff1)" d="M 85.111596 -1 
L 89.472727 12.059694 
L 95.109091 28.481981 
L 100.745455 44.448094 
L 106.381818 59.958032 
L 112.018182 75.011795 
L 117.654545 89.609384 
L 123.290909 103.750798 
L 128.927273 117.436038 
L 134.563636 130.665103 
L 140.2 143.437993 
L 145.836364 155.754708 
L 151.472727 167.615249 
L 157.109091 179.019616 
L 162.745455 189.967807 
L 168.381818 200.459824 
L 174.018182 210.495666 
L 179.654545 220.075334 
L 185.290909 229.198827 
L 190.927273 237.866145 
L 196.563636 246.077289 
L 202.2 253.832258 
L 207.836364 261.131052 
L 213.472727 267.973672 
L 219.109091 274.360117 
L 224.745455 280.290388 
L 230.381818 285.764484 
L 236.018182 290.782405 
L 241.654545 295.344151 
L 247.290909 299.449723 
L 252.927273 303.09912 
L 258.563636 306.292343 
L 264.2 309.029391 
L 269.836364 311.310264 
L 275.472727 313.134963 
L 281.109091 314.503486 
L 286.745455 315.415836 
L 292.381818 315.87201 
L 298.018182 315.87201 
L 303.654545 315.415836 
L 309.290909 314.503486 
L 314.927273 313.134963 
L 320.563636 311.310264 
L 326.2 309.029391 
L 331.836364 306.292343 
L 337.472727 303.09912 
L 343.109091 299.449723 
L 348.745455 295.344151 
L 354.381818 290.782405 
L 360.018182 285.764484 
L 365.654545 280.290388 
L 371.290909 274.360117 
L 376.927273 267.973672 
L 382.563636 261.131052 
L 388.2 253.832258 
L 393.836364 246.077289 
L 399.472727 237.866145 
L 405.109091 229.198827 
L 410.745455 220.075334 
L 416.381818 210.495666 
L 422.018182 200.459824 
L 427.654545 189.967807 
L 433.290909 179.019616 
L 438.927273 167.615249 
L 444.563636 155.754708 
L 450.2 143.437993 
L 455.836364 130.665103 
L 461.472727 117.436038 
L 467.109091 103.750798 
L 472.745455 89.609384 
L 478.381818 75.011795 
L 484.018182 59.958032 
L 489.654545 44.448094 
L 495.290909 28.481981 
L 500.927273 12.059694 
L 505.288404 -1 
" style="fill:none;stroke:#000000;stroke-linecap:square;stroke-width:2;"/>
   </g>
   <g id="line2d_18">
    <path clip-path="url(#p76b2437ff1)" d="M 16.2 293.574068 
L 21.836364 293.573987 
L 27.472727 293.573857 
L 33.109091 293.57365 
L 38.745455 293.573324 
L 44.381818 293.572817 
L 50.018182 293.572037 
L 55.654545 293.57085 
L 61.290909 293.569061 
L 66.927273 293.566395 
L 72.563636 293.562464 
L 78.2 293.556731 
L 83.836364 293.548461 
L 89.472727 293.536659 
L 95.109091 293.519999 
L 100.745455 293.49674 
L 106.381818 293.464622 
L 112.018182 293.420758 
L 117.654545 293.361516 
L 123.290909 293.282392 
L 128.927273 293.177896 
L 134.563636 293.041443 
L 140.2 292.865277 
L 145.836364 292.640433 
L 151.472727 292.356761 
L 157.109091 292.003024 
L 162.745455 291.567089 
L 168.381818 291.036228 
L 174.018182 290.397535 
L 179.654545 289.638474 
L 185.290909 288.747535 
L 190.927273 287.714999 
L 196.563636 286.53378 
L 202.2 285.200303 
L 207.836364 283.715366 
L 213.472727 282.084931 
L 219.109091 280.320776 
L 224.745455 278.440934 
L 230.381818 276.469867 
L 236.018182 274.438318 
L 241.654545 272.382796 
L 247.290909 270.344702 
L 252.927273 268.369078 
L 258.563636 266.503052 
L 264.2 264.794026 
L 269.836364 263.287704 
L 275.472727 262.026077 
L 281.109091 261.045486 
L 286.745455 260.374884 
L 292.381818 260.034416 
L 298.018182 260.034416 
L 303.654545 260.374884 
L 309.290909 261.045486 
L 314.927273 262.026077 
L 320.563636 263.287704 
L 326.2 264.794026 
L 331.836364 266.503052 
L 337.472727 268.369078 
L 343.109091 270.344702 
L 348.745455 272.382796 
L 354.381818 274.438318 
L 360.018182 276.469867 
L 365.654545 278.440934 
L 371.290909 280.320776 
L 376.927273 282.084931 
L 382.563636 283.715366 
L 388.2 285.200303 
L 393.836364 286.53378 
L 399.472727 287.714999 
L 405.109091 288.747535 
L 410.745455 289.638474 
L 416.381818 290.397535 
L 422.018182 291.036228 
L 427.654545 291.567089 
L 433.290909 292.003024 
L 438.927273 292.356761 
L 444.563636 292.640433 
L 450.2 292.865277 
L 455.836364 293.041443 
L 461.472727 293.177896 
L 467.109091 293.282392 
L 472.745455 293.361516 
L 478.381818 293.420758 
L 484.018182 293.464622 
L 489.654545 293.49674 
L 495.290909 293.519999 
L 500.927273 293.536659 
L 506.563636 293.548461 
L 512.2 293.556731 
L 517.836364 293.562464 
L 523.472727 293.566395 
L 529.109091 293.569061 
L 534.745455 293.57085 
L 540.381818 293.572037 
L 546.018182 293.572817 
L 551.654545 293.573324 
L 557.290909 293.57365 
L 562.927273 293.573857 
L 568.563636 293.573987 
L 574.2 293.574068 
" style="fill:none;stroke:#1f77b4;stroke-linecap:square;stroke-width:1.5;"/>
   </g>
   <g id="line2d_19">
    <path clip-path="url(#p76b2437ff1)" d="M 16.2 248.865401 
L 21.836364 248.865946 
L 27.472727 248.866801 
L 33.109091 248.868129 
L 38.745455 248.870169 
L 44.381818 248.873266 
L 50.018182 248.877916 
L 55.654545 248.884817 
L 61.290909 248.894945 
L 66.927273 248.909637 
L 72.563636 248.930701 
L 78.2 248.960553 
L 83.836364 249.002361 
L 89.472727 249.060222 
L 95.109091 249.139344 
L 100.745455 249.246232 
L 106.381818 249.38887 
L 112.018182 249.57686 
L 117.654545 249.821518 
L 123.290909 250.135872 
L 128.927273 250.534541 
L 134.563636 251.033461 
L 140.2 251.649404 
L 145.836364 252.399287 
L 151.472727 253.299222 
L 157.109091 254.363327 
L 162.745455 255.602308 
L 168.381818 257.021847 
L 174.018182 258.620897 
L 179.654545 260.389963 
L 185.290909 262.309522 
L 190.927273 264.348741 
L 196.563636 266.464652 
L 202.2 268.601966 
L 207.836364 270.693664 
L 213.472727 272.662488 
L 219.109091 274.423374 
L 224.745455 275.886816 
L 230.381818 276.963048 
L 236.018182 277.566866 
L 241.654545 277.622802 
L 247.290909 277.070317 
L 252.927273 275.86862 
L 258.563636 274.000722 
L 264.2 271.476351 
L 269.836364 268.333409 
L 275.472727 264.63777 
L 281.109091 260.481319 
L 286.745455 255.978291 
L 292.381818 251.260092 
L 298.018182 246.46894 
L 303.654545 241.750741 
L 309.290909 237.247713 
L 314.927273 233.091263 
L 320.563636 229.395623 
L 326.2 226.252681 
L 331.836364 223.72831 
L 337.472727 221.860412 
L 343.109091 220.658715 
L 348.745455 220.10623 
L 354.381818 220.162167 
L 360.018182 220.765985 
L 365.654545 221.842216 
L 371.290909 223.305658 
L 376.927273 225.066544 
L 382.563636 227.035369 
L 388.2 229.127066 
L 393.836364 231.26438 
L 399.472727 233.380291 
L 405.109091 235.41951 
L 410.745455 237.33907 
L 416.381818 239.108135 
L 422.018182 240.707185 
L 427.654545 242.126725 
L 433.290909 243.365705 
L 438.927273 244.42981 
L 444.563636 245.329745 
L 450.2 246.079628 
L 455.836364 246.695572 
L 461.472727 247.194491 
L 467.109091 247.59316 
L 472.745455 247.907514 
L 478.381818 248.152172 
L 484.018182 248.340163 
L 489.654545 248.4828 
L 495.290909 248.589689 
L 500.927273 248.66881 
L 506.563636 248.726671 
L 512.2 248.768479 
L 517.836364 248.798331 
L 523.472727 248.819396 
L 529.109091 248.834087 
L 534.745455 248.844215 
L 540.381818 248.851117 
L 546.018182 248.855767 
L 551.654545 248.858864 
L 557.290909 248.860903 
L 562.927273 248.862231 
L 568.563636 248.863087 
L 574.2 248.863631 
" style="fill:none;stroke:#ff7f0e;stroke-linecap:square;stroke-width:1.5;"/>
   </g>
   <g id="line2d_20">
    <path clip-path="url(#p76b2437ff1)" d="M 16.2 204.150502 
L 21.836364 204.147982 
L 27.472727 204.144115 
L 33.109091 204.138254 
L 38.745455 204.129475 
L 44.381818 204.116483 
L 50.018182 204.097487 
L 55.654545 204.070051 
L 61.290909 204.030912 
L 66.927273 203.97577 
L 72.563636 203.899061 
L 78.2 203.79371 
L 83.836364 203.650894 
L 89.472727 203.459837 
L 95.109091 203.207667 
L 100.745455 202.879385 
L 106.381818 202.457991 
L 112.018182 201.924831 
L 117.654545 201.260218 
L 123.290909 200.444371 
L 128.927273 199.458726 
L 134.563636 198.287619 
L 140.2 196.920319 
L 145.836364 195.353347 
L 151.472727 193.592967 
L 157.109091 191.657654 
L 162.745455 189.580328 
L 168.381818 187.410063 
L 174.018182 185.212975 
L 179.654545 183.071989 
L 185.290909 181.085214 
L 190.927273 179.362747 
L 196.563636 178.021811 
L 202.2 177.180324 
L 207.836364 176.949134 
L 213.472727 177.423359 
L 219.109091 178.673432 
L 224.745455 180.736604 
L 230.381818 183.609716 
L 236.018182 187.24406 
L 241.654545 191.543084 
L 247.290909 196.363468 
L 252.927273 201.519893 
L 258.563636 206.793457 
L 264.2 211.94336 
L 269.836364 216.721124 
L 275.472727 220.886323 
L 281.109091 224.222572 
L 286.745455 226.552451 
L 292.381818 227.750054 
L 298.018182 227.750054 
L 303.654545 226.552451 
L 309.290909 224.222572 
L 314.927273 220.886323 
L 320.563636 216.721124 
L 326.2 211.94336 
L 331.836364 206.793457 
L 337.472727 201.519893 
L 343.109091 196.363468 
L 348.745455 191.543084 
L 354.381818 187.24406 
L 360.018182 183.609716 
L 365.654545 180.736604 
L 371.290909 178.673432 
L 376.927273 177.423359 
L 382.563636 176.949134 
L 388.2 177.180324 
L 393.836364 178.021811 
L 399.472727 179.362747 
L 405.109091 181.085214 
L 410.745455 183.071989 
L 416.381818 185.212975 
L 422.018182 187.410063 
L 427.654545 189.580328 
L 433.290909 191.657654 
L 438.927273 193.592967 
L 444.563636 195.353347 
L 450.2 196.920319 
L 455.836364 198.287619 
L 461.472727 199.458726 
L 467.109091 200.444371 
L 472.745455 201.260218 
L 478.381818 201.924831 
L 484.018182 202.457991 
L 489.654545 202.879385 
L 495.290909 203.207667 
L 500.927273 203.459837 
L 506.563636 203.650894 
L 512.2 203.79371 
L 517.836364 203.899061 
L 523.472727 203.97577 
L 529.109091 204.030912 
L 534.745455 204.070051 
L 540.381818 204.097487 
L 546.018182 204.116483 
L 551.654545 204.129475 
L 557.290909 204.138254 
L 562.927273 204.144115 
L 568.563636 204.147982 
L 574.2 204.150502 
" style="fill:none;stroke:#2ca02c;stroke-linecap:square;stroke-width:1.5;"/>
   </g>
   <g id="line2d_21">
    <path clip-path="url(#p76b2437ff1)" d="M 16.2 159.462141 
L 21.836364 159.471423 
L 27.472727 159.485307 
L 33.109091 159.505815 
L 38.745455 159.535725 
L 44.381818 159.578787 
L 50.018182 159.639977 
L 55.654545 159.725779 
L 61.290909 159.84448 
L 66.927273 160.006449 
L 72.563636 160.224379 
L 78.2 160.513427 
L 83.836364 160.891206 
L 89.472727 161.377542 
L 95.109091 161.993933 
L 100.745455 162.762626 
L 106.381818 163.705238 
L 112.018182 164.840887 
L 117.654545 166.183834 
L 123.290909 167.740672 
L 128.927273 169.507209 
L 134.563636 171.465245 
L 140.2 173.579535 
L 145.836364 175.795324 
L 151.472727 178.036883 
L 157.109091 180.207498 
L 162.745455 182.191343 
L 168.381818 183.857574 
L 174.018182 185.066815 
L 179.654545 185.67998 
L 185.290909 185.569103 
L 190.927273 184.629534 
L 196.563636 182.792562 
L 202.2 180.037266 
L 207.836364 176.400237 
L 213.472727 171.98181 
L 219.109091 166.947552 
L 224.745455 161.524107 
L 230.381818 155.988944 
L 236.018182 150.654207 
L 241.654545 145.845515 
L 247.290909 141.877225 
L 252.927273 139.02627 
L 258.563636 137.507015 
L 264.2 137.44973 
L 269.836364 138.885091 
L 275.472727 141.736637 
L 281.109091 145.822396 
L 286.745455 150.865944 
L 292.381818 156.516181 
L 298.018182 162.374142 
L 303.654545 168.024379 
L 309.290909 173.067927 
L 314.927273 177.153686 
L 320.563636 180.005232 
L 326.2 181.440592 
L 331.836364 181.383308 
L 337.472727 179.864053 
L 343.109091 177.013098 
L 348.745455 173.044808 
L 354.381818 168.236115 
L 360.018182 162.901379 
L 365.654545 157.366215 
L 371.290909 151.94277 
L 376.927273 146.908513 
L 382.563636 142.490086 
L 388.2 138.853057 
L 393.836364 136.09776 
L 399.472727 134.260789 
L 405.109091 133.32122 
L 410.745455 133.210342 
L 416.381818 133.823507 
L 422.018182 135.032749 
L 427.654545 136.69898 
L 433.290909 138.682825 
L 438.927273 140.853439 
L 444.563636 143.094999 
L 450.2 145.310788 
L 455.836364 147.425078 
L 461.472727 149.383113 
L 467.109091 151.14965 
L 472.745455 152.706488 
L 478.381818 154.049435 
L 484.018182 155.185085 
L 489.654545 156.127697 
L 495.290909 156.89639 
L 500.927273 157.512781 
L 506.563636 157.999117 
L 512.2 158.376895 
L 517.836364 158.665944 
L 523.472727 158.883874 
L 529.109091 159.045843 
L 534.745455 159.164543 
L 540.381818 159.250346 
L 546.018182 159.311536 
L 551.654545 159.354598 
L 557.290909 159.384508 
L 562.927273 159.405016 
L 568.563636 159.4189 
L 574.2 159.428181 
" style="fill:none;stroke:#d62728;stroke-linecap:square;stroke-width:1.5;"/>
   </g>
   <g id="line2d_22">
    <path clip-path="url(#p76b2437ff1)" d="M 16.2 114.679205 
L 21.836364 114.65045 
L 27.472727 114.608571 
L 33.109091 114.5484 
L 38.745455 114.463132 
L 44.381818 114.343984 
L 50.018182 114.179863 
L 55.654545 113.957079 
L 61.290909 113.659174 
L 66.927273 113.266921 
L 72.563636 112.7586 
L 78.2 112.110649 
L 83.836364 111.298776 
L 89.472727 110.299638 
L 95.109091 109.093131 
L 100.745455 107.665296 
L 106.381818 106.011764 
L 112.018182 104.141573 
L 117.654545 102.081058 
L 123.290909 99.877402 
L 128.927273 97.601345 
L 134.563636 95.348437 
L 140.2 93.238231 
L 145.836364 91.410856 
L 151.472727 90.020567 
L 157.109091 89.226128 
L 162.745455 89.178238 
L 168.381818 90.004652 
L 174.018182 91.794086 
L 179.654545 94.580457 
L 185.290909 98.329303 
L 190.927273 102.928414 
L 196.563636 108.184587 
L 202.2 113.828071 
L 207.836364 119.525582 
L 213.472727 124.901901 
L 219.109091 129.56895 
L 224.745455 133.160163 
L 230.381818 135.366973 
L 236.018182 135.973526 
L 241.654545 134.885444 
L 247.290909 132.148712 
L 252.927273 127.955548 
L 258.563636 122.635422 
L 264.2 116.631048 
L 269.836364 110.461018 
L 275.472727 104.672499 
L 281.109091 99.788829 
L 286.745455 96.257738 
L 292.381818 94.406029 
L 298.018182 94.406029 
L 303.654545 96.257738 
L 309.290909 99.788829 
L 314.927273 104.672499 
L 320.563636 110.461018 
L 326.2 116.631048 
L 331.836364 122.635422 
L 337.472727 127.955548 
L 343.109091 132.148712 
L 348.745455 134.885444 
L 354.381818 135.973526 
L 360.018182 135.366973 
L 365.654545 133.160163 
L 371.290909 129.56895 
L 376.927273 124.901901 
L 382.563636 119.525582 
L 388.2 113.828071 
L 393.836364 108.184587 
L 399.472727 102.928414 
L 405.109091 98.329303 
L 410.745455 94.580457 
L 416.381818 91.794086 
L 422.018182 90.004652 
L 427.654545 89.178238 
L 433.290909 89.226128 
L 438.927273 90.020567 
L 444.563636 91.410856 
L 450.2 93.238231 
L 455.836364 95.348437 
L 461.472727 97.601345 
L 467.109091 99.877402 
L 472.745455 102.081058 
L 478.381818 104.141573 
L 484.018182 106.011764 
L 489.654545 107.665296 
L 495.290909 109.093131 
L 500.927273 110.299638 
L 506.563636 111.298776 
L 512.2 112.110649 
L 517.836364 112.7586 
L 523.472727 113.266921 
L 529.109091 113.659174 
L 534.745455 113.957079 
L 540.381818 114.179863 
L 546.018182 114.343984 
L 551.654545 114.463132 
L 557.290909 114.5484 
L 562.927273 114.608571 
L 568.563636 114.65045 
L 574.2 114.679205 
" style="fill:none;stroke:#9467bd;stroke-linecap:square;stroke-width:1.5;"/>
   </g>
   <g id="patch_3">
    <path d="M 72 320.4 
L 72 43.2 
" style="fill:none;stroke:#000000;stroke-linecap:square;stroke-linejoin:miter;stroke-width:0.8;"/>
   </g>
   <g id="patch_4">
    <path d="M 518.4 320.4 
L 518.4 43.2 
" style="fill:none;stroke:#000000;stroke-linecap:square;stroke-linejoin:miter;stroke-width:0.8;"/>
   </g>
   <g id="patch_5">
    <path d="M 72 320.4 
L 518.4 320.4 
" style="fill:none;stroke:#000000;stroke-linecap:square;stroke-linejoin:miter;stroke-width:0.8;"/>
   </g>
   <g id="patch_6">
    <path d="M 72 43.2 
L 518.4 43.2 
" style="fill:none;stroke:#000000;stroke-linecap:square;stroke-linejoin:miter;stroke-width:0.8;"/>
   </g>
   <g id="legend_1">
    <g id="patch_7">
     <path d="M 265.482031 124.590625 
L 324.917969 124.590625 
Q 326.917969 124.590625 326.917969 122.590625 
L 326.917969 50.2 
Q 326.917969 48.2 324.917969 48.2 
L 265.482031 48.2 
Q 263.482031 48.2 263.482031 50.2 
L 263.482031 122.590625 
Q 263.482031 124.590625 265.482031 124.590625 
z
" style="fill:#ffffff;opacity:0.8;stroke:#cccccc;stroke-linejoin:miter;"/>
    </g>
    <g id="line2d_23">
     <path d="M 267.482031 56.298437 
L 287.482031 56.298437 
" style="fill:none;stroke:#1f77b4;stroke-linecap:square;stroke-width:1.5;"/>
    </g>
    <g id="line2d_24"/>
    <g id="text_18">
     <!-- n = 0 -->
     <g transform="translate(295.482031 59.798437)scale(0.1 -0.1)">
      <defs>
       <path d="M 3513 2113 
L 3513 0 
L 2938 0 
L 2938 2094 
Q 2938 2591 2744 2837 
Q 2550 3084 2163 3084 
Q 1697 3084 1428 2787 
Q 1159 2491 1159 1978 
L 1159 0 
L 581 0 
L 581 3500 
L 1159 3500 
L 1159 2956 
Q 1366 3272 1645 3428 
Q 1925 3584 2291 3584 
Q 2894 3584 3203 3211 
Q 3513 2838 3513 2113 
z
" id="DejaVuSans-6e" transform="scale(0.015625)"/>
       <path id="DejaVuSans-20" transform="scale(0.015625)"/>
       <path d="M 678 2906 
L 4684 2906 
L 4684 2381 
L 678 2381 
L 678 2906 
z
M 678 1631 
L 4684 1631 
L 4684 1100 
L 678 1100 
L 678 1631 
z
" id="DejaVuSans-3d" transform="scale(0.015625)"/>
      </defs>
      <use xlink:href="#DejaVuSans-6e"/>
      <use x="63.378906" xlink:href="#DejaVuSans-20"/>
      <use x="95.166016" xlink:href="#DejaVuSans-3d"/>
      <use x="178.955078" xlink:href="#DejaVuSans-20"/>
      <use x="210.742188" xlink:href="#DejaVuSans-30"/>
     </g>
    </g>
    <g id="line2d_25">
     <path d="M 267.482031 70.976562 
L 287.482031 70.976562 
" style="fill:none;stroke:#ff7f0e;stroke-linecap:square;stroke-width:1.5;"/>
    </g>
    <g id="line2d_26"/>
    <g id="text_19">
     <!-- n = 1 -->
     <g transform="translate(295.482031 74.476562)scale(0.1 -0.1)">
      <use xlink:href="#DejaVuSans-6e"/>
      <use x="63.378906" xlink:href="#DejaVuSans-20"/>
      <use x="95.166016" xlink:href="#DejaVuSans-3d"/>
      <use x="178.955078" xlink:href="#DejaVuSans-20"/>
      <use x="210.742188" xlink:href="#DejaVuSans-31"/>
     </g>
    </g>
    <g id="line2d_27">
     <path d="M 267.482031 85.654687 
L 287.482031 85.654687 
" style="fill:none;stroke:#2ca02c;stroke-linecap:square;stroke-width:1.5;"/>
    </g>
    <g id="line2d_28"/>
    <g id="text_20">
     <!-- n = 2 -->
     <g transform="translate(295.482031 89.154687)scale(0.1 -0.1)">
      <use xlink:href="#DejaVuSans-6e"/>
      <use x="63.378906" xlink:href="#DejaVuSans-20"/>
      <use x="95.166016" xlink:href="#DejaVuSans-3d"/>
      <use x="178.955078" xlink:href="#DejaVuSans-20"/>
      <use x="210.742188" xlink:href="#DejaVuSans-32"/>
     </g>
    </g>
    <g id="line2d_29">
     <path d="M 267.482031 100.332812 
L 287.482031 100.332812 
" style="fill:none;stroke:#d62728;stroke-linecap:square;stroke-width:1.5;"/>
    </g>
    <g id="line2d_30"/>
    <g id="text_21">
     <!-- n = 3 -->
     <g transform="translate(295.482031 103.832812)scale(0.1 -0.1)">
      <use xlink:href="#DejaVuSans-6e"/>
      <use x="63.378906" xlink:href="#DejaVuSans-20"/>
      <use x="95.166016" xlink:href="#DejaVuSans-3d"/>
      <use x="178.955078" xlink:href="#DejaVuSans-20"/>
      <use x="210.742188" xlink:href="#DejaVuSans-33"/>
     </g>
    </g>
    <g id="line2d_31">
     <path d="M 267.482031 115.010937 
L 287.482031 115.010937 
" style="fill:none;stroke:#9467bd;stroke-linecap:square;stroke-width:1.5;"/>
    </g>
    <g id="line2d_32"/>
    <g id="text_22">
     <!-- n = 4 -->
     <g transform="translate(295.482031 118.510937)scale(0.1 -0.1)">
      <use xlink:href="#DejaVuSans-6e"/>
      <use x="63.378906" xlink:href="#DejaVuSans-20"/>
      <use x="95.166016" xlink:href="#DejaVuSans-3d"/>
      <use x="178.955078" xlink:href="#DejaVuSans-20"/>
      <use x="210.742188" xlink:href="#DejaVuSans-34"/>
     </g>
    </g>
   </g>
  </g>
 </g>
 <defs>
  <clipPath id="p76b2437ff1">
   <rect height="277.2" width="446.4" x="72" y="43.2"/>
  </clipPath>
 </defs>
</svg>
