<svg xmlns="http://www.w3.org/2000/svg" width="536" height="128"><style>line, path, circle, rect, polygon{stroke:black;stroke-width:2;stroke-opacity:1;fill-opacity:1;stroke-linecap:round;stroke-linejoin:miter;}text{font-family:Iosevka Fixed, monospace;font-size:14px;}rect.backdrop{stroke:none;fill:white;}.broken{stroke-dasharray:8;}.filled{fill:black;}.bg_filled{fill:white;}.nofill{fill:white;}.end_marked_arrow{marker-end:url(#arrow);}.start_marked_arrow{marker-start:url(#arrow);}.end_marked_diamond{marker-end:url(#diamond);}.start_marked_diamond{marker-start:url(#diamond);}.end_marked_circle{marker-end:url(#circle);}.start_marked_circle{marker-start:url(#circle);}.end_marked_open_circle{marker-end:url(#open_circle);}.start_marked_open_circle{marker-start:url(#open_circle);}.end_marked_big_open_circle{marker-end:url(#big_open_circle);}.start_marked_big_open_circle{marker-start:url(#big_open_circle);}<!--separator--></style><defs><marker id="arrow" viewBox="-2 -2 8 8" refX="4" refY="2" markerWidth="7" markerHeight="7" orient="auto-start-reverse"><polygon points="0,0 0,4 4,2 0,0"></polygon></marker><marker id="diamond" viewBox="-2 -2 8 8" refX="4" refY="2" markerWidth="7" markerHeight="7" orient="auto-start-reverse"><polygon points="0,2 2,0 4,2 2,4 0,2"></polygon></marker><marker id="circle" viewBox="0 0 8 8" refX="4" refY="4" markerWidth="7" markerHeight="7" orient="auto-start-reverse"><circle cx="4" cy="4" r="2" class="filled"></circle></marker><marker id="open_circle" viewBox="0 0 8 8" refX="4" refY="4" markerWidth="7" markerHeight="7" orient="auto-start-reverse"><circle cx="4" cy="4" r="2" class="bg_filled"></circle></marker><marker id="big_open_circle" viewBox="0 0 8 8" refX="4" refY="4" markerWidth="7" markerHeight="7" orient="auto-start-reverse"><circle cx="4" cy="4" r="3" class="bg_filled"></circle></marker></defs><rect class="backdrop" x="0" y="0" width="536" height="128"></rect><text x="10" y="28" >Bit</text><text x="42" y="28" >7</text><text x="58" y="28" >Bit</text><text x="90" y="28" >6</text><text x="106" y="28" >Bit</text><text x="138" y="28" >5</text><text x="154" y="28" >Bit</text><text x="186" y="28" >4</text><text x="202" y="28" >Bit</text><text x="234" y="28" >3</text><text x="250" y="28" >Bit</text><text x="282" y="28" >2</text><text x="298" y="28" >Bit</text><text x="330" y="28" >1</text><text x="346" y="28" >Bit</text><text x="378" y="28" >0</text><text x="402" y="28" >Decimal</text><text x="466" y="28" >Number</text><text x="26" y="60" >1</text><text x="74" y="60" >0</text><text x="122" y="60" >0</text><text x="170" y="60" >1</text><text x="218" y="60" >1</text><text x="266" y="60" >1</text><text x="314" y="60" >1</text><text x="362" y="60" >1</text><line x1="16" y1="88" x2="24" y2="88" class="solid"></line><text x="26" y="92" >1</text><text x="66" y="92" >64</text><text x="114" y="92" >32</text><text x="162" y="92" >16</text><text x="218" y="92" >8</text><text x="266" y="92" >4</text><text x="314" y="92" >2</text><text x="362" y="92" >1</text><line x1="448" y1="72" x2="456" y2="72" class="solid"></line><text x="458" y="76" >31</text><g><path d="M 8,8 A 4,4 0,0,0 4,12" class="nofill"></path><line x1="4" y1="12" x2="4" y2="100" class="solid"></line><line x1="8" y1="8" x2="520" y2="8" class="solid"></line><line x1="52" y1="8" x2="52" y2="104" class="solid"></line><line x1="100" y1="8" x2="100" y2="104" class="solid"></line><line x1="148" y1="8" x2="148" y2="104" class="solid"></line><line x1="196" y1="8" x2="196" y2="104" class="solid"></line><line x1="244" y1="8" x2="244" y2="104" class="solid"></line><line x1="292" y1="8" x2="292" y2="104" class="solid"></line><line x1="340" y1="8" x2="340" y2="104" class="solid"></line><line x1="388" y1="8" x2="388" y2="104" class="solid"></line><path d="M 520,8 A 4,4 0,0,1 524,12" class="nofill"></path><line x1="524" y1="12" x2="524" y2="100" class="solid"></line><line x1="4" y1="40" x2="524" y2="40" class="solid"></line><line x1="4" y1="72" x2="388" y2="72" class="solid"></line><path d="M 4,100 A 4,4 0,0,0 8,104" class="nofill"></path><line x1="8" y1="104" x2="520" y2="104" class="solid"></line><path d="M 524,100 A 4,4 0,0,1 520,104" class="nofill"></path></g></svg>