<?xml version="1.0" encoding="utf-8" standalone="no"?>
<!DOCTYPE svg PUBLIC "-//W3C//DTD SVG 1.1//EN"
  "http://www.w3.org/Graphics/SVG/1.1/DTD/svg11.dtd">
<svg xmlns:xlink="http://www.w3.org/1999/xlink" width="576pt" height="360pt" viewBox="0 0 576 360" xmlns="http://www.w3.org/2000/svg" version="1.1">
 <metadata>
  <rdf:RDF xmlns:dc="http://purl.org/dc/elements/1.1/" xmlns:cc="http://creativecommons.org/ns#" xmlns:rdf="http://www.w3.org/1999/02/22-rdf-syntax-ns#">
   <cc:Work>
    <dc:type rdf:resource="http://purl.org/dc/dcmitype/StillImage"/>
    <dc:date>2024-06-25T13:35:49.925727</dc:date>
    <dc:format>image/svg+xml</dc:format>
    <dc:creator>
     <cc:Agent>
      <dc:title>Matplotlib v3.8.4, https://matplotlib.org/</dc:title>
     </cc:Agent>
    </dc:creator>
   </cc:Work>
  </rdf:RDF>
 </metadata>
 <defs>
  <style type="text/css">*{stroke-linejoin: round; stroke-linecap: butt}</style>
 </defs>
 <g id="figure_1">
  <g id="patch_1">
   <path d="M 0 360 
L 576 360 
L 576 0 
L 0 0 
z
" style="fill: #ffffff"/>
  </g>
  <g id="axes_1">
   <g id="patch_2">
    <path d="M 56.135 315.232 
L 282.6 315.232 
L 282.6 29.076 
L 56.135 29.076 
z
" style="fill: #ffffff"/>
   </g>
   <g id="matplotlib.axis_1">
    <g id="xtick_1">
     <g id="line2d_1">
      <defs>
       <path id="m1798d9b1cf" d="M 0 0 
L 0 3.5 
" style="stroke: #000000; stroke-width: 0.8"/>
      </defs>
      <g>
       <use xlink:href="#m1798d9b1cf" x="109.771447" y="315.232" style="stroke: #000000; stroke-width: 0.8"/>
      </g>
     </g>
     <g id="text_1">
      <!-- 1.0 -->
      <g transform="translate(101.819885 329.830438) scale(0.1 -0.1)">
       <defs>
        <path id="DejaVuSans-31" d="M 794 531 
L 1825 531 
L 1825 4091 
L 703 3866 
L 703 4441 
L 1819 4666 
L 2450 4666 
L 2450 531 
L 3481 531 
L 3481 0 
L 794 0 
L 794 531 
z
" transform="scale(0.015625)"/>
        <path id="DejaVuSans-2e" d="M 684 794 
L 1344 794 
L 1344 0 
L 684 0 
L 684 794 
z
" transform="scale(0.015625)"/>
        <path id="DejaVuSans-30" d="M 2034 4250 
Q 1547 4250 1301 3770 
Q 1056 3291 1056 2328 
Q 1056 1369 1301 889 
Q 1547 409 2034 409 
Q 2525 409 2770 889 
Q 3016 1369 3016 2328 
Q 3016 3291 2770 3770 
Q 2525 4250 2034 4250 
z
M 2034 4750 
Q 2819 4750 3233 4129 
Q 3647 3509 3647 2328 
Q 3647 1150 3233 529 
Q 2819 -91 2034 -91 
Q 1250 -91 836 529 
Q 422 1150 422 2328 
Q 422 3509 836 4129 
Q 1250 4750 2034 4750 
z
" transform="scale(0.015625)"/>
       </defs>
       <use xlink:href="#DejaVuSans-31"/>
       <use xlink:href="#DejaVuSans-2e" x="63.623047"/>
       <use xlink:href="#DejaVuSans-30" x="95.410156"/>
      </g>
     </g>
    </g>
    <g id="xtick_2">
     <g id="line2d_2">
      <g>
       <use xlink:href="#m1798d9b1cf" x="163.949677" y="315.232" style="stroke: #000000; stroke-width: 0.8"/>
      </g>
     </g>
     <g id="text_2">
      <!-- 1.5 -->
      <g transform="translate(155.998115 329.830438) scale(0.1 -0.1)">
       <defs>
        <path id="DejaVuSans-35" d="M 691 4666 
L 3169 4666 
L 3169 4134 
L 1269 4134 
L 1269 2991 
Q 1406 3038 1543 3061 
Q 1681 3084 1819 3084 
Q 2600 3084 3056 2656 
Q 3513 2228 3513 1497 
Q 3513 744 3044 326 
Q 2575 -91 1722 -91 
Q 1428 -91 1123 -41 
Q 819 9 494 109 
L 494 744 
Q 775 591 1075 516 
Q 1375 441 1709 441 
Q 2250 441 2565 725 
Q 2881 1009 2881 1497 
Q 2881 1984 2565 2268 
Q 2250 2553 1709 2553 
Q 1456 2553 1204 2497 
Q 953 2441 691 2322 
L 691 4666 
z
" transform="scale(0.015625)"/>
       </defs>
       <use xlink:href="#DejaVuSans-31"/>
       <use xlink:href="#DejaVuSans-2e" x="63.623047"/>
       <use xlink:href="#DejaVuSans-35" x="95.410156"/>
      </g>
     </g>
    </g>
    <g id="xtick_3">
     <g id="line2d_3">
      <g>
       <use xlink:href="#m1798d9b1cf" x="218.127907" y="315.232" style="stroke: #000000; stroke-width: 0.8"/>
      </g>
     </g>
     <g id="text_3">
      <!-- 2.0 -->
      <g transform="translate(210.176344 329.830438) scale(0.1 -0.1)">
       <defs>
        <path id="DejaVuSans-32" d="M 1228 531 
L 3431 531 
L 3431 0 
L 469 0 
L 469 531 
Q 828 903 1448 1529 
Q 2069 2156 2228 2338 
Q 2531 2678 2651 2914 
Q 2772 3150 2772 3378 
Q 2772 3750 2511 3984 
Q 2250 4219 1831 4219 
Q 1534 4219 1204 4116 
Q 875 4013 500 3803 
L 500 4441 
Q 881 4594 1212 4672 
Q 1544 4750 1819 4750 
Q 2544 4750 2975 4387 
Q 3406 4025 3406 3419 
Q 3406 3131 3298 2873 
Q 3191 2616 2906 2266 
Q 2828 2175 2409 1742 
Q 1991 1309 1228 531 
z
" transform="scale(0.015625)"/>
       </defs>
       <use xlink:href="#DejaVuSans-32"/>
       <use xlink:href="#DejaVuSans-2e" x="63.623047"/>
       <use xlink:href="#DejaVuSans-30" x="95.410156"/>
      </g>
     </g>
    </g>
    <g id="xtick_4">
     <g id="line2d_4">
      <g>
       <use xlink:href="#m1798d9b1cf" x="272.306136" y="315.232" style="stroke: #000000; stroke-width: 0.8"/>
      </g>
     </g>
     <g id="text_4">
      <!-- 2.5 -->
      <g transform="translate(264.354574 329.830438) scale(0.1 -0.1)">
       <use xlink:href="#DejaVuSans-32"/>
       <use xlink:href="#DejaVuSans-2e" x="63.623047"/>
       <use xlink:href="#DejaVuSans-35" x="95.410156"/>
      </g>
     </g>
    </g>
    <g id="text_5">
     <!-- $r_{\mathrm{H-H}}$ / $\mathrm{\AA}$ -->
     <g transform="translate(149.3175 344.830438) scale(0.1 -0.1)">
      <defs>
       <path id="DejaVuSans-Oblique-72" d="M 2853 2969 
Q 2766 3016 2653 3041 
Q 2541 3066 2413 3066 
Q 1953 3066 1609 2717 
Q 1266 2369 1153 1784 
L 800 0 
L 225 0 
L 909 3500 
L 1484 3500 
L 1375 2956 
Q 1603 3259 1920 3421 
Q 2238 3584 2597 3584 
Q 2691 3584 2781 3573 
Q 2872 3563 2963 3538 
L 2853 2969 
z
" transform="scale(0.015625)"/>
       <path id="DejaVuSans-48" d="M 628 4666 
L 1259 4666 
L 1259 2753 
L 3553 2753 
L 3553 4666 
L 4184 4666 
L 4184 0 
L 3553 0 
L 3553 2222 
L 1259 2222 
L 1259 0 
L 628 0 
L 628 4666 
z
" transform="scale(0.015625)"/>
       <path id="DejaVuSans-2212" d="M 678 2272 
L 4684 2272 
L 4684 1741 
L 678 1741 
L 678 2272 
z
" transform="scale(0.015625)"/>
       <path id="DejaVuSans-20" transform="scale(0.015625)"/>
       <path id="DejaVuSans-2f" d="M 1625 4666 
L 2156 4666 
L 531 -594 
L 0 -594 
L 1625 4666 
z
" transform="scale(0.015625)"/>
       <path id="DejaVuSans-c5" d="M 2663 5081 
Q 2663 5278 2523 5417 
Q 2384 5556 2188 5556 
Q 1988 5556 1852 5420 
Q 1716 5284 1716 5081 
Q 1716 4884 1853 4746 
Q 1991 4609 2188 4609 
Q 2384 4609 2523 4746 
Q 2663 4884 2663 5081 
z
M 2188 4044 
L 1338 1722 
L 3041 1722 
L 2188 4044 
z
M 1716 4366 
Q 1525 4494 1428 4673 
Q 1331 4853 1331 5081 
Q 1331 5441 1579 5691 
Q 1828 5941 2188 5941 
Q 2544 5941 2795 5689 
Q 3047 5438 3047 5081 
Q 3047 4863 2948 4678 
Q 2850 4494 2663 4366 
L 4325 0 
L 3669 0 
L 3244 1197 
L 1141 1197 
L 716 0 
L 50 0 
L 1716 4366 
z
" transform="scale(0.015625)"/>
      </defs>
      <use xlink:href="#DejaVuSans-Oblique-72" transform="translate(0 0.171875)"/>
      <use xlink:href="#DejaVuSans-48" transform="translate(41.113281 -16.234375) scale(0.7)"/>
      <use xlink:href="#DejaVuSans-2212" transform="translate(107.387695 -16.234375) scale(0.7)"/>
      <use xlink:href="#DejaVuSans-48" transform="translate(179.677734 -16.234375) scale(0.7)"/>
      <use xlink:href="#DejaVuSans-20" transform="translate(235.048828 0.171875)"/>
      <use xlink:href="#DejaVuSans-2f" transform="translate(266.835938 0.171875)"/>
      <use xlink:href="#DejaVuSans-20" transform="translate(300.527344 0.171875)"/>
      <use xlink:href="#DejaVuSans-c5" transform="translate(332.314453 0.171875)"/>
     </g>
    </g>
   </g>
   <g id="matplotlib.axis_2">
    <g id="ytick_1">
     <g id="line2d_5">
      <defs>
       <path id="m3447903425" d="M 0 0 
L -3.5 0 
" style="stroke: #000000; stroke-width: 0.8"/>
      </defs>
      <g>
       <use xlink:href="#m3447903425" x="56.135" y="306.958175" style="stroke: #000000; stroke-width: 0.8"/>
      </g>
     </g>
     <g id="text_6">
      <!-- −2.0 -->
      <g transform="translate(24.852188 310.757394) scale(0.1 -0.1)">
       <use xlink:href="#DejaVuSans-2212"/>
       <use xlink:href="#DejaVuSans-32" x="83.789062"/>
       <use xlink:href="#DejaVuSans-2e" x="147.412109"/>
       <use xlink:href="#DejaVuSans-30" x="179.199219"/>
      </g>
     </g>
    </g>
    <g id="ytick_2">
     <g id="line2d_6">
      <g>
       <use xlink:href="#m3447903425" x="56.135" y="275.000893" style="stroke: #000000; stroke-width: 0.8"/>
      </g>
     </g>
     <g id="text_7">
      <!-- −1.8 -->
      <g transform="translate(24.852188 278.800111) scale(0.1 -0.1)">
       <defs>
        <path id="DejaVuSans-38" d="M 2034 2216 
Q 1584 2216 1326 1975 
Q 1069 1734 1069 1313 
Q 1069 891 1326 650 
Q 1584 409 2034 409 
Q 2484 409 2743 651 
Q 3003 894 3003 1313 
Q 3003 1734 2745 1975 
Q 2488 2216 2034 2216 
z
M 1403 2484 
Q 997 2584 770 2862 
Q 544 3141 544 3541 
Q 544 4100 942 4425 
Q 1341 4750 2034 4750 
Q 2731 4750 3128 4425 
Q 3525 4100 3525 3541 
Q 3525 3141 3298 2862 
Q 3072 2584 2669 2484 
Q 3125 2378 3379 2068 
Q 3634 1759 3634 1313 
Q 3634 634 3220 271 
Q 2806 -91 2034 -91 
Q 1263 -91 848 271 
Q 434 634 434 1313 
Q 434 1759 690 2068 
Q 947 2378 1403 2484 
z
M 1172 3481 
Q 1172 3119 1398 2916 
Q 1625 2713 2034 2713 
Q 2441 2713 2670 2916 
Q 2900 3119 2900 3481 
Q 2900 3844 2670 4047 
Q 2441 4250 2034 4250 
Q 1625 4250 1398 4047 
Q 1172 3844 1172 3481 
z
" transform="scale(0.015625)"/>
       </defs>
       <use xlink:href="#DejaVuSans-2212"/>
       <use xlink:href="#DejaVuSans-31" x="83.789062"/>
       <use xlink:href="#DejaVuSans-2e" x="147.412109"/>
       <use xlink:href="#DejaVuSans-38" x="179.199219"/>
      </g>
     </g>
    </g>
    <g id="ytick_3">
     <g id="line2d_7">
      <g>
       <use xlink:href="#m3447903425" x="56.135" y="243.04361" style="stroke: #000000; stroke-width: 0.8"/>
      </g>
     </g>
     <g id="text_8">
      <!-- −1.6 -->
      <g transform="translate(24.852188 246.842829) scale(0.1 -0.1)">
       <defs>
        <path id="DejaVuSans-36" d="M 2113 2584 
Q 1688 2584 1439 2293 
Q 1191 2003 1191 1497 
Q 1191 994 1439 701 
Q 1688 409 2113 409 
Q 2538 409 2786 701 
Q 3034 994 3034 1497 
Q 3034 2003 2786 2293 
Q 2538 2584 2113 2584 
z
M 3366 4563 
L 3366 3988 
Q 3128 4100 2886 4159 
Q 2644 4219 2406 4219 
Q 1781 4219 1451 3797 
Q 1122 3375 1075 2522 
Q 1259 2794 1537 2939 
Q 1816 3084 2150 3084 
Q 2853 3084 3261 2657 
Q 3669 2231 3669 1497 
Q 3669 778 3244 343 
Q 2819 -91 2113 -91 
Q 1303 -91 875 529 
Q 447 1150 447 2328 
Q 447 3434 972 4092 
Q 1497 4750 2381 4750 
Q 2619 4750 2861 4703 
Q 3103 4656 3366 4563 
z
" transform="scale(0.015625)"/>
       </defs>
       <use xlink:href="#DejaVuSans-2212"/>
       <use xlink:href="#DejaVuSans-31" x="83.789062"/>
       <use xlink:href="#DejaVuSans-2e" x="147.412109"/>
       <use xlink:href="#DejaVuSans-36" x="179.199219"/>
      </g>
     </g>
    </g>
    <g id="ytick_4">
     <g id="line2d_8">
      <g>
       <use xlink:href="#m3447903425" x="56.135" y="211.086327" style="stroke: #000000; stroke-width: 0.8"/>
      </g>
     </g>
     <g id="text_9">
      <!-- −1.4 -->
      <g transform="translate(24.852188 214.885546) scale(0.1 -0.1)">
       <defs>
        <path id="DejaVuSans-34" d="M 2419 4116 
L 825 1625 
L 2419 1625 
L 2419 4116 
z
M 2253 4666 
L 3047 4666 
L 3047 1625 
L 3713 1625 
L 3713 1100 
L 3047 1100 
L 3047 0 
L 2419 0 
L 2419 1100 
L 313 1100 
L 313 1709 
L 2253 4666 
z
" transform="scale(0.015625)"/>
       </defs>
       <use xlink:href="#DejaVuSans-2212"/>
       <use xlink:href="#DejaVuSans-31" x="83.789062"/>
       <use xlink:href="#DejaVuSans-2e" x="147.412109"/>
       <use xlink:href="#DejaVuSans-34" x="179.199219"/>
      </g>
     </g>
    </g>
    <g id="ytick_5">
     <g id="line2d_9">
      <g>
       <use xlink:href="#m3447903425" x="56.135" y="179.129045" style="stroke: #000000; stroke-width: 0.8"/>
      </g>
     </g>
     <g id="text_10">
      <!-- −1.2 -->
      <g transform="translate(24.852188 182.928263) scale(0.1 -0.1)">
       <use xlink:href="#DejaVuSans-2212"/>
       <use xlink:href="#DejaVuSans-31" x="83.789062"/>
       <use xlink:href="#DejaVuSans-2e" x="147.412109"/>
       <use xlink:href="#DejaVuSans-32" x="179.199219"/>
      </g>
     </g>
    </g>
    <g id="ytick_6">
     <g id="line2d_10">
      <g>
       <use xlink:href="#m3447903425" x="56.135" y="147.171762" style="stroke: #000000; stroke-width: 0.8"/>
      </g>
     </g>
     <g id="text_11">
      <!-- −1.0 -->
      <g transform="translate(24.852188 150.970981) scale(0.1 -0.1)">
       <use xlink:href="#DejaVuSans-2212"/>
       <use xlink:href="#DejaVuSans-31" x="83.789062"/>
       <use xlink:href="#DejaVuSans-2e" x="147.412109"/>
       <use xlink:href="#DejaVuSans-30" x="179.199219"/>
      </g>
     </g>
    </g>
    <g id="ytick_7">
     <g id="line2d_11">
      <g>
       <use xlink:href="#m3447903425" x="56.135" y="115.214479" style="stroke: #000000; stroke-width: 0.8"/>
      </g>
     </g>
     <g id="text_12">
      <!-- −0.8 -->
      <g transform="translate(24.852188 119.013698) scale(0.1 -0.1)">
       <use xlink:href="#DejaVuSans-2212"/>
       <use xlink:href="#DejaVuSans-30" x="83.789062"/>
       <use xlink:href="#DejaVuSans-2e" x="147.412109"/>
       <use xlink:href="#DejaVuSans-38" x="179.199219"/>
      </g>
     </g>
    </g>
    <g id="ytick_8">
     <g id="line2d_12">
      <g>
       <use xlink:href="#m3447903425" x="56.135" y="83.257197" style="stroke: #000000; stroke-width: 0.8"/>
      </g>
     </g>
     <g id="text_13">
      <!-- −0.6 -->
      <g transform="translate(24.852188 87.056415) scale(0.1 -0.1)">
       <use xlink:href="#DejaVuSans-2212"/>
       <use xlink:href="#DejaVuSans-30" x="83.789062"/>
       <use xlink:href="#DejaVuSans-2e" x="147.412109"/>
       <use xlink:href="#DejaVuSans-36" x="179.199219"/>
      </g>
     </g>
    </g>
    <g id="ytick_9">
     <g id="line2d_13">
      <g>
       <use xlink:href="#m3447903425" x="56.135" y="51.299914" style="stroke: #000000; stroke-width: 0.8"/>
      </g>
     </g>
     <g id="text_14">
      <!-- −0.4 -->
      <g transform="translate(24.852188 55.099133) scale(0.1 -0.1)">
       <use xlink:href="#DejaVuSans-2212"/>
       <use xlink:href="#DejaVuSans-30" x="83.789062"/>
       <use xlink:href="#DejaVuSans-2e" x="147.412109"/>
       <use xlink:href="#DejaVuSans-34" x="179.199219"/>
      </g>
     </g>
    </g>
    <g id="text_15">
     <!-- energy / a.u. -->
     <g transform="translate(18.7725 203.850875) rotate(-90) scale(0.1 -0.1)">
      <defs>
       <path id="DejaVuSans-65" d="M 3597 1894 
L 3597 1613 
L 953 1613 
Q 991 1019 1311 708 
Q 1631 397 2203 397 
Q 2534 397 2845 478 
Q 3156 559 3463 722 
L 3463 178 
Q 3153 47 2828 -22 
Q 2503 -91 2169 -91 
Q 1331 -91 842 396 
Q 353 884 353 1716 
Q 353 2575 817 3079 
Q 1281 3584 2069 3584 
Q 2775 3584 3186 3129 
Q 3597 2675 3597 1894 
z
M 3022 2063 
Q 3016 2534 2758 2815 
Q 2500 3097 2075 3097 
Q 1594 3097 1305 2825 
Q 1016 2553 972 2059 
L 3022 2063 
z
" transform="scale(0.015625)"/>
       <path id="DejaVuSans-6e" d="M 3513 2113 
L 3513 0 
L 2938 0 
L 2938 2094 
Q 2938 2591 2744 2837 
Q 2550 3084 2163 3084 
Q 1697 3084 1428 2787 
Q 1159 2491 1159 1978 
L 1159 0 
L 581 0 
L 581 3500 
L 1159 3500 
L 1159 2956 
Q 1366 3272 1645 3428 
Q 1925 3584 2291 3584 
Q 2894 3584 3203 3211 
Q 3513 2838 3513 2113 
z
" transform="scale(0.015625)"/>
       <path id="DejaVuSans-72" d="M 2631 2963 
Q 2534 3019 2420 3045 
Q 2306 3072 2169 3072 
Q 1681 3072 1420 2755 
Q 1159 2438 1159 1844 
L 1159 0 
L 581 0 
L 581 3500 
L 1159 3500 
L 1159 2956 
Q 1341 3275 1631 3429 
Q 1922 3584 2338 3584 
Q 2397 3584 2469 3576 
Q 2541 3569 2628 3553 
L 2631 2963 
z
" transform="scale(0.015625)"/>
       <path id="DejaVuSans-67" d="M 2906 1791 
Q 2906 2416 2648 2759 
Q 2391 3103 1925 3103 
Q 1463 3103 1205 2759 
Q 947 2416 947 1791 
Q 947 1169 1205 825 
Q 1463 481 1925 481 
Q 2391 481 2648 825 
Q 2906 1169 2906 1791 
z
M 3481 434 
Q 3481 -459 3084 -895 
Q 2688 -1331 1869 -1331 
Q 1566 -1331 1297 -1286 
Q 1028 -1241 775 -1147 
L 775 -588 
Q 1028 -725 1275 -790 
Q 1522 -856 1778 -856 
Q 2344 -856 2625 -561 
Q 2906 -266 2906 331 
L 2906 616 
Q 2728 306 2450 153 
Q 2172 0 1784 0 
Q 1141 0 747 490 
Q 353 981 353 1791 
Q 353 2603 747 3093 
Q 1141 3584 1784 3584 
Q 2172 3584 2450 3431 
Q 2728 3278 2906 2969 
L 2906 3500 
L 3481 3500 
L 3481 434 
z
" transform="scale(0.015625)"/>
       <path id="DejaVuSans-79" d="M 2059 -325 
Q 1816 -950 1584 -1140 
Q 1353 -1331 966 -1331 
L 506 -1331 
L 506 -850 
L 844 -850 
Q 1081 -850 1212 -737 
Q 1344 -625 1503 -206 
L 1606 56 
L 191 3500 
L 800 3500 
L 1894 763 
L 2988 3500 
L 3597 3500 
L 2059 -325 
z
" transform="scale(0.015625)"/>
       <path id="DejaVuSans-61" d="M 2194 1759 
Q 1497 1759 1228 1600 
Q 959 1441 959 1056 
Q 959 750 1161 570 
Q 1363 391 1709 391 
Q 2188 391 2477 730 
Q 2766 1069 2766 1631 
L 2766 1759 
L 2194 1759 
z
M 3341 1997 
L 3341 0 
L 2766 0 
L 2766 531 
Q 2569 213 2275 61 
Q 1981 -91 1556 -91 
Q 1019 -91 701 211 
Q 384 513 384 1019 
Q 384 1609 779 1909 
Q 1175 2209 1959 2209 
L 2766 2209 
L 2766 2266 
Q 2766 2663 2505 2880 
Q 2244 3097 1772 3097 
Q 1472 3097 1187 3025 
Q 903 2953 641 2809 
L 641 3341 
Q 956 3463 1253 3523 
Q 1550 3584 1831 3584 
Q 2591 3584 2966 3190 
Q 3341 2797 3341 1997 
z
" transform="scale(0.015625)"/>
       <path id="DejaVuSans-75" d="M 544 1381 
L 544 3500 
L 1119 3500 
L 1119 1403 
Q 1119 906 1312 657 
Q 1506 409 1894 409 
Q 2359 409 2629 706 
Q 2900 1003 2900 1516 
L 2900 3500 
L 3475 3500 
L 3475 0 
L 2900 0 
L 2900 538 
Q 2691 219 2414 64 
Q 2138 -91 1772 -91 
Q 1169 -91 856 284 
Q 544 659 544 1381 
z
M 1991 3584 
L 1991 3584 
z
" transform="scale(0.015625)"/>
      </defs>
      <use xlink:href="#DejaVuSans-65"/>
      <use xlink:href="#DejaVuSans-6e" x="61.523438"/>
      <use xlink:href="#DejaVuSans-65" x="124.902344"/>
      <use xlink:href="#DejaVuSans-72" x="186.425781"/>
      <use xlink:href="#DejaVuSans-67" x="225.789062"/>
      <use xlink:href="#DejaVuSans-79" x="289.265625"/>
      <use xlink:href="#DejaVuSans-20" x="348.445312"/>
      <use xlink:href="#DejaVuSans-2f" x="380.232422"/>
      <use xlink:href="#DejaVuSans-20" x="413.923828"/>
      <use xlink:href="#DejaVuSans-61" x="445.710938"/>
      <use xlink:href="#DejaVuSans-2e" x="506.990234"/>
      <use xlink:href="#DejaVuSans-75" x="538.777344"/>
      <use xlink:href="#DejaVuSans-2e" x="602.15625"/>
     </g>
    </g>
   </g>
   <g id="line2d_14">
    <path d="M 66.428864 181.118653 
L 77.26451 233.35738 
L 88.100156 263.780512 
L 98.935801 282.469402 
L 109.771447 293.393356 
L 120.607093 299.223556 
L 131.442739 301.773088 
L 142.278385 302.224909 
L 153.114031 301.378524 
L 163.949677 299.787762 
L 174.785323 297.840597 
L 185.620969 295.80632 
L 196.456615 293.864285 
L 207.292261 292.123101 
L 218.127907 290.635896 
L 228.963553 289.414497 
L 239.799199 288.443084 
L 250.634844 287.690388 
L 261.47049 287.119267 
L 272.306136 286.69313 
" clip-path="url(#pae20b06e48)" style="fill: none; stroke: #1f77b4; stroke-width: 1.5; stroke-linecap: square"/>
   </g>
   <g id="line2d_15">
    <path d="M 66.428864 181.118653 
L 77.26451 233.35738 
L 88.100156 263.780512 
L 98.935801 281.37485 
L 109.771447 291.104089 
L 120.607093 295.903209 
L 131.442739 297.619335 
L 142.278385 297.470585 
L 153.114031 296.284126 
L 163.949677 294.625246 
L 174.785323 292.868903 
L 185.620969 291.242606 
L 196.456615 289.859456 
L 207.292261 288.750837 
L 218.127907 287.898621 
L 228.963553 287.261919 
L 239.799199 286.794917 
L 250.634844 286.456168 
L 261.47049 286.211939 
L 272.306136 286.036379 
" clip-path="url(#pae20b06e48)" style="fill: none; stroke: #ff7f0e; stroke-width: 1.5; stroke-linecap: square"/>
   </g>
   <g id="line2d_16">
    <path d="M 66.428864 181.118653 
L 77.26451 233.35738 
L 88.100156 263.780512 
L 98.935801 281.37485 
L 109.771447 291.104089 
L 120.607093 295.903209 
L 131.442739 297.619335 
L 142.278385 297.470585 
L 153.114031 296.284126 
L 163.949677 294.625246 
L 174.785323 292.868903 
L 185.620969 291.242606 
L 196.456615 289.859456 
L 207.292261 288.750837 
L 218.127907 287.898621 
L 228.963553 287.261919 
L 239.799199 286.794917 
L 250.634844 286.456168 
L 261.47049 286.211939 
L 272.306136 286.036379 
" clip-path="url(#pae20b06e48)" style="fill: none; stroke: #2ca02c; stroke-width: 1.5; stroke-linecap: square"/>
   </g>
   <g id="line2d_17">
    <path d="M 66.428864 177.829328 
L 77.26451 231.655393 
L 88.100156 263.54115 
L 98.935801 281.37485 
L 109.771447 291.104089 
L 120.607093 295.903209 
L 131.442739 297.619335 
L 142.278385 297.470585 
L 153.114031 296.284126 
L 163.949677 294.625246 
L 174.785323 292.868903 
L 185.620969 291.242606 
L 196.456615 289.859456 
L 207.292261 288.750837 
L 218.127907 287.898621 
L 228.963553 287.261919 
L 239.799199 286.794917 
L 250.634844 286.456168 
L 261.47049 286.211939 
L 272.306136 286.036379 
" clip-path="url(#pae20b06e48)" style="fill: none; stroke: #d62728; stroke-width: 1.5; stroke-linecap: square"/>
   </g>
   <g id="line2d_18">
    <path d="M 66.428864 159.063787 
L 77.26451 210.2266 
L 88.100156 240.923769 
L 98.935801 258.948129 
L 109.771447 269.299447 
L 120.607093 274.983099 
L 131.442739 277.936943 
L 142.278385 279.449079 
L 153.114031 280.339477 
L 163.949677 281.053199 
L 174.785323 281.757136 
L 185.620969 282.460548 
L 196.456615 283.120007 
L 207.292261 283.696987 
L 218.127907 284.174313 
L 228.963553 284.552878 
L 239.799199 284.843783 
L 250.634844 285.061969 
L 261.47049 285.222446 
L 272.306136 285.33852 
" clip-path="url(#pae20b06e48)" style="fill: none; stroke: #9467bd; stroke-width: 1.5; stroke-linecap: square"/>
   </g>
   <g id="line2d_19">
    <path d="M 66.428864 157.852234 
L 77.26451 209.211941 
L 88.100156 237.529509 
L 98.935801 252.960744 
L 109.771447 260.410076 
L 120.607093 262.757159 
L 131.442739 261.805224 
L 142.278385 265.290485 
L 153.114031 271.338838 
L 163.949677 275.598627 
L 174.785323 278.586837 
L 185.620969 280.678956 
L 196.456615 282.144139 
L 207.292261 283.172348 
L 218.127907 283.895951 
L 228.963553 284.406509 
L 239.799199 284.767279 
L 250.634844 285.022138 
L 261.47049 285.20176 
L 272.306136 285.327794 
" clip-path="url(#pae20b06e48)" style="fill: none; stroke: #8c564b; stroke-width: 1.5; stroke-linecap: square"/>
   </g>
   <g id="line2d_20">
    <path d="M 66.428864 42.083091 
L 77.26451 118.181331 
L 88.100156 168.880324 
L 98.935801 203.583659 
L 109.771447 227.717503 
L 120.607093 244.702379 
L 131.442739 256.743229 
L 142.278385 265.290485 
L 153.114031 271.338838 
L 163.949677 275.598627 
L 174.785323 278.586837 
L 185.620969 280.678956 
L 196.456615 282.144139 
L 207.292261 283.172348 
L 218.127907 283.895951 
L 228.963553 284.406509 
L 239.799199 284.767279 
L 250.634844 285.022138 
L 261.47049 285.20176 
L 272.306136 285.327794 
" clip-path="url(#pae20b06e48)" style="fill: none; stroke: #e377c2; stroke-width: 1.5; stroke-linecap: square"/>
   </g>
   <g id="line2d_21">
    <path d="M 66.428864 42.083091 
L 77.26451 118.181331 
L 88.100156 168.880324 
L 98.935801 203.583659 
L 109.771447 227.717503 
L 120.607093 244.702379 
L 131.442739 256.743229 
L 142.278385 265.290485 
L 153.114031 271.338838 
L 163.949677 275.598627 
L 174.785323 278.586837 
L 185.620969 280.678956 
L 196.456615 282.144139 
L 207.292261 283.172348 
L 218.127907 283.895951 
L 228.963553 284.406509 
L 239.799199 284.767279 
L 250.634844 285.022138 
L 261.47049 285.20176 
L 272.306136 285.327794 
" clip-path="url(#pae20b06e48)" style="fill: none; stroke: #7f7f7f; stroke-width: 1.5; stroke-linecap: square"/>
   </g>
   <g id="patch_3">
    <path d="M 56.135 315.232 
L 56.135 29.076 
" style="fill: none; stroke: #000000; stroke-width: 0.8; stroke-linejoin: miter; stroke-linecap: square"/>
   </g>
   <g id="patch_4">
    <path d="M 282.6 315.232 
L 282.6 29.076 
" style="fill: none; stroke: #000000; stroke-width: 0.8; stroke-linejoin: miter; stroke-linecap: square"/>
   </g>
   <g id="patch_5">
    <path d="M 56.135 315.232 
L 282.6 315.232 
" style="fill: none; stroke: #000000; stroke-width: 0.8; stroke-linejoin: miter; stroke-linecap: square"/>
   </g>
   <g id="patch_6">
    <path d="M 56.135 29.076 
L 282.6 29.076 
" style="fill: none; stroke: #000000; stroke-width: 0.8; stroke-linejoin: miter; stroke-linecap: square"/>
   </g>
   <g id="text_16">
    <!-- $\mathrm{D_{4h}}$ $\mathrm{H_4}$ -->
    <g transform="translate(149.8675 23.076) scale(0.12 -0.12)">
     <defs>
      <path id="DejaVuSans-44" d="M 1259 4147 
L 1259 519 
L 2022 519 
Q 2988 519 3436 956 
Q 3884 1394 3884 2338 
Q 3884 3275 3436 3711 
Q 2988 4147 2022 4147 
L 1259 4147 
z
M 628 4666 
L 1925 4666 
Q 3281 4666 3915 4102 
Q 4550 3538 4550 2338 
Q 4550 1131 3912 565 
Q 3275 0 1925 0 
L 628 0 
L 628 4666 
z
" transform="scale(0.015625)"/>
      <path id="DejaVuSans-68" d="M 3513 2113 
L 3513 0 
L 2938 0 
L 2938 2094 
Q 2938 2591 2744 2837 
Q 2550 3084 2163 3084 
Q 1697 3084 1428 2787 
Q 1159 2491 1159 1978 
L 1159 0 
L 581 0 
L 581 4863 
L 1159 4863 
L 1159 2956 
Q 1366 3272 1645 3428 
Q 1925 3584 2291 3584 
Q 2894 3584 3203 3211 
Q 3513 2838 3513 2113 
z
" transform="scale(0.015625)"/>
     </defs>
     <use xlink:href="#DejaVuSans-44" transform="translate(0 0.09375)"/>
     <use xlink:href="#DejaVuSans-34" transform="translate(77.958984 -16.3125) scale(0.7)"/>
     <use xlink:href="#DejaVuSans-68" transform="translate(122.495117 -16.3125) scale(0.7)"/>
     <use xlink:href="#DejaVuSans-20" transform="translate(169.594727 0.09375)"/>
     <use xlink:href="#DejaVuSans-48" transform="translate(201.381836 0.09375)"/>
     <use xlink:href="#DejaVuSans-34" transform="translate(277.53418 -16.3125) scale(0.7)"/>
    </g>
   </g>
   <g id="legend_1">
    <g id="patch_7">
     <path d="M 208.728125 154.501 
L 275.6 154.501 
Q 277.6 154.501 277.6 152.501 
L 277.6 36.076 
Q 277.6 34.076 275.6 34.076 
L 208.728125 34.076 
Q 206.728125 34.076 206.728125 36.076 
L 206.728125 152.501 
Q 206.728125 154.501 208.728125 154.501 
z
" style="fill: #ffffff; opacity: 0.8; stroke: #cccccc; stroke-linejoin: miter"/>
    </g>
    <g id="line2d_22">
     <path d="M 210.728125 42.174438 
L 220.728125 42.174438 
L 230.728125 42.174438 
" style="fill: none; stroke: #1f77b4; stroke-width: 1.5; stroke-linecap: square"/>
    </g>
    <g id="text_17">
     <!-- state 0 -->
     <g transform="translate(238.728125 45.674438) scale(0.1 -0.1)">
      <defs>
       <path id="DejaVuSans-73" d="M 2834 3397 
L 2834 2853 
Q 2591 2978 2328 3040 
Q 2066 3103 1784 3103 
Q 1356 3103 1142 2972 
Q 928 2841 928 2578 
Q 928 2378 1081 2264 
Q 1234 2150 1697 2047 
L 1894 2003 
Q 2506 1872 2764 1633 
Q 3022 1394 3022 966 
Q 3022 478 2636 193 
Q 2250 -91 1575 -91 
Q 1294 -91 989 -36 
Q 684 19 347 128 
L 347 722 
Q 666 556 975 473 
Q 1284 391 1588 391 
Q 1994 391 2212 530 
Q 2431 669 2431 922 
Q 2431 1156 2273 1281 
Q 2116 1406 1581 1522 
L 1381 1569 
Q 847 1681 609 1914 
Q 372 2147 372 2553 
Q 372 3047 722 3315 
Q 1072 3584 1716 3584 
Q 2034 3584 2315 3537 
Q 2597 3491 2834 3397 
z
" transform="scale(0.015625)"/>
       <path id="DejaVuSans-74" d="M 1172 4494 
L 1172 3500 
L 2356 3500 
L 2356 3053 
L 1172 3053 
L 1172 1153 
Q 1172 725 1289 603 
Q 1406 481 1766 481 
L 2356 481 
L 2356 0 
L 1766 0 
Q 1100 0 847 248 
Q 594 497 594 1153 
L 594 3053 
L 172 3053 
L 172 3500 
L 594 3500 
L 594 4494 
L 1172 4494 
z
" transform="scale(0.015625)"/>
      </defs>
      <use xlink:href="#DejaVuSans-73"/>
      <use xlink:href="#DejaVuSans-74" x="52.099609"/>
      <use xlink:href="#DejaVuSans-61" x="91.308594"/>
      <use xlink:href="#DejaVuSans-74" x="152.587891"/>
      <use xlink:href="#DejaVuSans-65" x="191.796875"/>
      <use xlink:href="#DejaVuSans-20" x="253.320312"/>
      <use xlink:href="#DejaVuSans-30" x="285.107422"/>
     </g>
    </g>
    <g id="line2d_23">
     <path d="M 210.728125 56.852563 
L 220.728125 56.852563 
L 230.728125 56.852563 
" style="fill: none; stroke: #ff7f0e; stroke-width: 1.5; stroke-linecap: square"/>
    </g>
    <g id="text_18">
     <!-- state 1 -->
     <g transform="translate(238.728125 60.352563) scale(0.1 -0.1)">
      <use xlink:href="#DejaVuSans-73"/>
      <use xlink:href="#DejaVuSans-74" x="52.099609"/>
      <use xlink:href="#DejaVuSans-61" x="91.308594"/>
      <use xlink:href="#DejaVuSans-74" x="152.587891"/>
      <use xlink:href="#DejaVuSans-65" x="191.796875"/>
      <use xlink:href="#DejaVuSans-20" x="253.320312"/>
      <use xlink:href="#DejaVuSans-31" x="285.107422"/>
     </g>
    </g>
    <g id="line2d_24">
     <path d="M 210.728125 71.530688 
L 220.728125 71.530688 
L 230.728125 71.530688 
" style="fill: none; stroke: #2ca02c; stroke-width: 1.5; stroke-linecap: square"/>
    </g>
    <g id="text_19">
     <!-- state 2 -->
     <g transform="translate(238.728125 75.030688) scale(0.1 -0.1)">
      <use xlink:href="#DejaVuSans-73"/>
      <use xlink:href="#DejaVuSans-74" x="52.099609"/>
      <use xlink:href="#DejaVuSans-61" x="91.308594"/>
      <use xlink:href="#DejaVuSans-74" x="152.587891"/>
      <use xlink:href="#DejaVuSans-65" x="191.796875"/>
      <use xlink:href="#DejaVuSans-20" x="253.320312"/>
      <use xlink:href="#DejaVuSans-32" x="285.107422"/>
     </g>
    </g>
    <g id="line2d_25">
     <path d="M 210.728125 86.208813 
L 220.728125 86.208813 
L 230.728125 86.208813 
" style="fill: none; stroke: #d62728; stroke-width: 1.5; stroke-linecap: square"/>
    </g>
    <g id="text_20">
     <!-- state 3 -->
     <g transform="translate(238.728125 89.708813) scale(0.1 -0.1)">
      <defs>
       <path id="DejaVuSans-33" d="M 2597 2516 
Q 3050 2419 3304 2112 
Q 3559 1806 3559 1356 
Q 3559 666 3084 287 
Q 2609 -91 1734 -91 
Q 1441 -91 1130 -33 
Q 819 25 488 141 
L 488 750 
Q 750 597 1062 519 
Q 1375 441 1716 441 
Q 2309 441 2620 675 
Q 2931 909 2931 1356 
Q 2931 1769 2642 2001 
Q 2353 2234 1838 2234 
L 1294 2234 
L 1294 2753 
L 1863 2753 
Q 2328 2753 2575 2939 
Q 2822 3125 2822 3475 
Q 2822 3834 2567 4026 
Q 2313 4219 1838 4219 
Q 1578 4219 1281 4162 
Q 984 4106 628 3988 
L 628 4550 
Q 988 4650 1302 4700 
Q 1616 4750 1894 4750 
Q 2613 4750 3031 4423 
Q 3450 4097 3450 3541 
Q 3450 3153 3228 2886 
Q 3006 2619 2597 2516 
z
" transform="scale(0.015625)"/>
      </defs>
      <use xlink:href="#DejaVuSans-73"/>
      <use xlink:href="#DejaVuSans-74" x="52.099609"/>
      <use xlink:href="#DejaVuSans-61" x="91.308594"/>
      <use xlink:href="#DejaVuSans-74" x="152.587891"/>
      <use xlink:href="#DejaVuSans-65" x="191.796875"/>
      <use xlink:href="#DejaVuSans-20" x="253.320312"/>
      <use xlink:href="#DejaVuSans-33" x="285.107422"/>
     </g>
    </g>
    <g id="line2d_26">
     <path d="M 210.728125 100.886938 
L 220.728125 100.886938 
L 230.728125 100.886938 
" style="fill: none; stroke: #9467bd; stroke-width: 1.5; stroke-linecap: square"/>
    </g>
    <g id="text_21">
     <!-- state 4 -->
     <g transform="translate(238.728125 104.386938) scale(0.1 -0.1)">
      <use xlink:href="#DejaVuSans-73"/>
      <use xlink:href="#DejaVuSans-74" x="52.099609"/>
      <use xlink:href="#DejaVuSans-61" x="91.308594"/>
      <use xlink:href="#DejaVuSans-74" x="152.587891"/>
      <use xlink:href="#DejaVuSans-65" x="191.796875"/>
      <use xlink:href="#DejaVuSans-20" x="253.320312"/>
      <use xlink:href="#DejaVuSans-34" x="285.107422"/>
     </g>
    </g>
    <g id="line2d_27">
     <path d="M 210.728125 115.565063 
L 220.728125 115.565063 
L 230.728125 115.565063 
" style="fill: none; stroke: #8c564b; stroke-width: 1.5; stroke-linecap: square"/>
    </g>
    <g id="text_22">
     <!-- state 5 -->
     <g transform="translate(238.728125 119.065063) scale(0.1 -0.1)">
      <use xlink:href="#DejaVuSans-73"/>
      <use xlink:href="#DejaVuSans-74" x="52.099609"/>
      <use xlink:href="#DejaVuSans-61" x="91.308594"/>
      <use xlink:href="#DejaVuSans-74" x="152.587891"/>
      <use xlink:href="#DejaVuSans-65" x="191.796875"/>
      <use xlink:href="#DejaVuSans-20" x="253.320312"/>
      <use xlink:href="#DejaVuSans-35" x="285.107422"/>
     </g>
    </g>
    <g id="line2d_28">
     <path d="M 210.728125 130.243188 
L 220.728125 130.243188 
L 230.728125 130.243188 
" style="fill: none; stroke: #e377c2; stroke-width: 1.5; stroke-linecap: square"/>
    </g>
    <g id="text_23">
     <!-- state 6 -->
     <g transform="translate(238.728125 133.743188) scale(0.1 -0.1)">
      <use xlink:href="#DejaVuSans-73"/>
      <use xlink:href="#DejaVuSans-74" x="52.099609"/>
      <use xlink:href="#DejaVuSans-61" x="91.308594"/>
      <use xlink:href="#DejaVuSans-74" x="152.587891"/>
      <use xlink:href="#DejaVuSans-65" x="191.796875"/>
      <use xlink:href="#DejaVuSans-20" x="253.320312"/>
      <use xlink:href="#DejaVuSans-36" x="285.107422"/>
     </g>
    </g>
    <g id="line2d_29">
     <path d="M 210.728125 144.921313 
L 220.728125 144.921313 
L 230.728125 144.921313 
" style="fill: none; stroke: #7f7f7f; stroke-width: 1.5; stroke-linecap: square"/>
    </g>
    <g id="text_24">
     <!-- state 7 -->
     <g transform="translate(238.728125 148.421313) scale(0.1 -0.1)">
      <defs>
       <path id="DejaVuSans-37" d="M 525 4666 
L 3525 4666 
L 3525 4397 
L 1831 0 
L 1172 0 
L 2766 4134 
L 525 4134 
L 525 4666 
z
" transform="scale(0.015625)"/>
      </defs>
      <use xlink:href="#DejaVuSans-73"/>
      <use xlink:href="#DejaVuSans-74" x="52.099609"/>
      <use xlink:href="#DejaVuSans-61" x="91.308594"/>
      <use xlink:href="#DejaVuSans-74" x="152.587891"/>
      <use xlink:href="#DejaVuSans-65" x="191.796875"/>
      <use xlink:href="#DejaVuSans-20" x="253.320312"/>
      <use xlink:href="#DejaVuSans-37" x="285.107422"/>
     </g>
    </g>
   </g>
  </g>
  <g id="axes_2">
   <g id="patch_8">
    <path d="M 338.735 315.232 
L 565.2 315.232 
L 565.2 29.076 
L 338.735 29.076 
z
" style="fill: #ffffff"/>
   </g>
   <g id="matplotlib.axis_3">
    <g id="xtick_5">
     <g id="line2d_30">
      <g>
       <use xlink:href="#m1798d9b1cf" x="358.832543" y="315.232" style="stroke: #000000; stroke-width: 0.8"/>
      </g>
     </g>
     <g id="text_25">
      <!-- 0.5 -->
      <g transform="translate(350.880981 329.830438) scale(0.1 -0.1)">
       <use xlink:href="#DejaVuSans-30"/>
       <use xlink:href="#DejaVuSans-2e" x="63.623047"/>
       <use xlink:href="#DejaVuSans-35" x="95.410156"/>
      </g>
     </g>
    </g>
    <g id="xtick_6">
     <g id="line2d_31">
      <g>
       <use xlink:href="#m1798d9b1cf" x="407.850942" y="315.232" style="stroke: #000000; stroke-width: 0.8"/>
      </g>
     </g>
     <g id="text_26">
      <!-- 1.0 -->
      <g transform="translate(399.899379 329.830438) scale(0.1 -0.1)">
       <use xlink:href="#DejaVuSans-31"/>
       <use xlink:href="#DejaVuSans-2e" x="63.623047"/>
       <use xlink:href="#DejaVuSans-30" x="95.410156"/>
      </g>
     </g>
    </g>
    <g id="xtick_7">
     <g id="line2d_32">
      <g>
       <use xlink:href="#m1798d9b1cf" x="456.86934" y="315.232" style="stroke: #000000; stroke-width: 0.8"/>
      </g>
     </g>
     <g id="text_27">
      <!-- 1.5 -->
      <g transform="translate(448.917777 329.830438) scale(0.1 -0.1)">
       <use xlink:href="#DejaVuSans-31"/>
       <use xlink:href="#DejaVuSans-2e" x="63.623047"/>
       <use xlink:href="#DejaVuSans-35" x="95.410156"/>
      </g>
     </g>
    </g>
    <g id="xtick_8">
     <g id="line2d_33">
      <g>
       <use xlink:href="#m1798d9b1cf" x="505.887738" y="315.232" style="stroke: #000000; stroke-width: 0.8"/>
      </g>
     </g>
     <g id="text_28">
      <!-- 2.0 -->
      <g transform="translate(497.936176 329.830438) scale(0.1 -0.1)">
       <use xlink:href="#DejaVuSans-32"/>
       <use xlink:href="#DejaVuSans-2e" x="63.623047"/>
       <use xlink:href="#DejaVuSans-30" x="95.410156"/>
      </g>
     </g>
    </g>
    <g id="xtick_9">
     <g id="line2d_34">
      <g>
       <use xlink:href="#m1798d9b1cf" x="554.906136" y="315.232" style="stroke: #000000; stroke-width: 0.8"/>
      </g>
     </g>
     <g id="text_29">
      <!-- 2.5 -->
      <g transform="translate(546.954574 329.830438) scale(0.1 -0.1)">
       <use xlink:href="#DejaVuSans-32"/>
       <use xlink:href="#DejaVuSans-2e" x="63.623047"/>
       <use xlink:href="#DejaVuSans-35" x="95.410156"/>
      </g>
     </g>
    </g>
    <g id="text_30">
     <!-- $r_x$ / $\mathrm{\AA}$ -->
     <g transform="translate(439.4175 344.830438) scale(0.1 -0.1)">
      <defs>
       <path id="DejaVuSans-Oblique-78" d="M 3841 3500 
L 2234 1784 
L 3219 0 
L 2559 0 
L 1819 1388 
L 531 0 
L -166 0 
L 1556 1844 
L 641 3500 
L 1300 3500 
L 1972 2234 
L 3144 3500 
L 3841 3500 
z
" transform="scale(0.015625)"/>
      </defs>
      <use xlink:href="#DejaVuSans-Oblique-72" transform="translate(0 0.171875)"/>
      <use xlink:href="#DejaVuSans-Oblique-78" transform="translate(41.113281 -16.234375) scale(0.7)"/>
      <use xlink:href="#DejaVuSans-20" transform="translate(85.273438 0.171875)"/>
      <use xlink:href="#DejaVuSans-2f" transform="translate(117.060547 0.171875)"/>
      <use xlink:href="#DejaVuSans-20" transform="translate(150.751953 0.171875)"/>
      <use xlink:href="#DejaVuSans-c5" transform="translate(182.539062 0.171875)"/>
     </g>
    </g>
   </g>
   <g id="matplotlib.axis_4">
    <g id="ytick_10">
     <g id="line2d_35">
      <g>
       <use xlink:href="#m3447903425" x="338.735" y="279.046362" style="stroke: #000000; stroke-width: 0.8"/>
      </g>
     </g>
     <g id="text_31">
      <!-- −2.0 -->
      <g transform="translate(307.452188 282.845581) scale(0.1 -0.1)">
       <use xlink:href="#DejaVuSans-2212"/>
       <use xlink:href="#DejaVuSans-32" x="83.789062"/>
       <use xlink:href="#DejaVuSans-2e" x="147.412109"/>
       <use xlink:href="#DejaVuSans-30" x="179.199219"/>
      </g>
     </g>
    </g>
    <g id="ytick_11">
     <g id="line2d_36">
      <g>
       <use xlink:href="#m3447903425" x="338.735" y="216.2477" style="stroke: #000000; stroke-width: 0.8"/>
      </g>
     </g>
     <g id="text_32">
      <!-- −1.5 -->
      <g transform="translate(307.452188 220.046919) scale(0.1 -0.1)">
       <use xlink:href="#DejaVuSans-2212"/>
       <use xlink:href="#DejaVuSans-31" x="83.789062"/>
       <use xlink:href="#DejaVuSans-2e" x="147.412109"/>
       <use xlink:href="#DejaVuSans-35" x="179.199219"/>
      </g>
     </g>
    </g>
    <g id="ytick_12">
     <g id="line2d_37">
      <g>
       <use xlink:href="#m3447903425" x="338.735" y="153.449038" style="stroke: #000000; stroke-width: 0.8"/>
      </g>
     </g>
     <g id="text_33">
      <!-- −1.0 -->
      <g transform="translate(307.452188 157.248256) scale(0.1 -0.1)">
       <use xlink:href="#DejaVuSans-2212"/>
       <use xlink:href="#DejaVuSans-31" x="83.789062"/>
       <use xlink:href="#DejaVuSans-2e" x="147.412109"/>
       <use xlink:href="#DejaVuSans-30" x="179.199219"/>
      </g>
     </g>
    </g>
    <g id="ytick_13">
     <g id="line2d_38">
      <g>
       <use xlink:href="#m3447903425" x="338.735" y="90.650375" style="stroke: #000000; stroke-width: 0.8"/>
      </g>
     </g>
     <g id="text_34">
      <!-- −0.5 -->
      <g transform="translate(307.452188 94.449594) scale(0.1 -0.1)">
       <use xlink:href="#DejaVuSans-2212"/>
       <use xlink:href="#DejaVuSans-30" x="83.789062"/>
       <use xlink:href="#DejaVuSans-2e" x="147.412109"/>
       <use xlink:href="#DejaVuSans-35" x="179.199219"/>
      </g>
     </g>
    </g>
    <g id="text_35">
     <!-- energy / a.u. -->
     <g transform="translate(301.3725 203.850875) rotate(-90) scale(0.1 -0.1)">
      <use xlink:href="#DejaVuSans-65"/>
      <use xlink:href="#DejaVuSans-6e" x="61.523438"/>
      <use xlink:href="#DejaVuSans-65" x="124.902344"/>
      <use xlink:href="#DejaVuSans-72" x="186.425781"/>
      <use xlink:href="#DejaVuSans-67" x="225.789062"/>
      <use xlink:href="#DejaVuSans-79" x="289.265625"/>
      <use xlink:href="#DejaVuSans-20" x="348.445312"/>
      <use xlink:href="#DejaVuSans-2f" x="380.232422"/>
      <use xlink:href="#DejaVuSans-20" x="413.923828"/>
      <use xlink:href="#DejaVuSans-61" x="445.710938"/>
      <use xlink:href="#DejaVuSans-2e" x="506.990234"/>
      <use xlink:href="#DejaVuSans-75" x="538.777344"/>
      <use xlink:href="#DejaVuSans-2e" x="602.15625"/>
     </g>
    </g>
   </g>
   <g id="line2d_39">
    <path d="M 349.028864 250.084947 
L 358.832543 284.149712 
L 368.636223 298.291331 
L 378.439903 302.224909 
L 388.243582 300.811887 
L 398.047262 296.691971 
L 407.850942 291.345771 
L 417.654621 285.687698 
L 427.458301 280.444562 
L 437.261981 276.443313 
L 447.06566 274.660575 
L 456.86934 275.099014 
L 466.673019 276.471377 
L 476.476699 277.902958 
L 486.280379 279.124112 
L 496.084058 280.095043 
L 505.887738 280.842201 
L 515.691418 281.406467 
L 525.495097 281.827219 
L 535.298777 282.137884 
L 545.102457 282.365336 
L 554.906136 282.530562 
" clip-path="url(#p190dd463a4)" style="fill: none; stroke: #1f77b4; stroke-width: 1.5; stroke-linecap: square"/>
   </g>
   <g id="line2d_40">
    <path d="M 349.028864 120.217491 
L 358.832543 180.81312 
L 368.636223 217.423778 
L 378.439903 239.979608 
L 388.243582 253.849733 
L 398.047262 262.248645 
L 407.850942 267.147518 
L 417.654621 269.766369 
L 427.458301 270.890958 
L 437.261981 271.059345 
L 447.06566 270.656212 
L 456.86934 269.957397 
L 466.673019 269.153739 
L 476.476699 268.367893 
L 486.280379 267.669072 
L 496.084058 267.087053 
L 505.887738 266.625258 
L 515.691418 266.271994 
L 525.495097 266.008998 
L 535.298777 265.817005 
L 545.102457 265.678731 
L 554.906136 265.580034 
" clip-path="url(#p190dd463a4)" style="fill: none; stroke: #ff7f0e; stroke-width: 1.5; stroke-linecap: square"/>
   </g>
   <g id="line2d_41">
    <path d="M 349.028864 120.217491 
L 358.832543 180.81312 
L 368.636223 217.423778 
L 378.439903 239.979608 
L 388.243582 253.849733 
L 398.047262 262.248645 
L 407.850942 267.147518 
L 417.654621 269.766369 
L 427.458301 270.890958 
L 437.261981 271.059345 
L 447.06566 270.656212 
L 456.86934 269.957397 
L 466.673019 269.153739 
L 476.476699 268.367893 
L 486.280379 267.669072 
L 496.084058 267.087053 
L 505.887738 266.625258 
L 515.691418 266.271994 
L 525.495097 266.008998 
L 535.298777 265.817005 
L 545.102457 265.678731 
L 554.906136 265.580034 
" clip-path="url(#p190dd463a4)" style="fill: none; stroke: #2ca02c; stroke-width: 1.5; stroke-linecap: square"/>
   </g>
   <g id="line2d_42">
    <path d="M 349.028864 120.217491 
L 358.832543 180.81312 
L 368.636223 217.423778 
L 378.439903 239.979608 
L 388.243582 253.849733 
L 398.047262 262.248645 
L 407.850942 267.147518 
L 417.654621 269.766369 
L 427.458301 270.890958 
L 437.261981 271.059345 
L 447.06566 270.656212 
L 456.86934 269.957397 
L 466.673019 269.153739 
L 476.476699 268.367893 
L 486.280379 267.669072 
L 496.084058 267.087053 
L 505.887738 266.625258 
L 515.691418 266.271994 
L 525.495097 266.008998 
L 535.298777 265.817005 
L 545.102457 265.678731 
L 554.906136 265.580034 
" clip-path="url(#p190dd463a4)" style="fill: none; stroke: #d62728; stroke-width: 1.5; stroke-linecap: square"/>
   </g>
   <g id="line2d_43">
    <path d="M 349.028864 101.316995 
L 358.832543 161.408327 
L 368.636223 197.712548 
L 378.439903 220.070941 
L 388.243582 233.808274 
L 398.047262 242.127717 
L 407.850942 247.003821 
L 417.654621 249.66244 
L 427.458301 251.178105 
L 437.261981 256.25273 
L 447.06566 258.123199 
L 456.86934 257.312576 
L 466.673019 257.604319 
L 476.476699 259.691681 
L 486.280379 261.237675 
L 496.084058 262.376972 
L 505.887738 263.212188 
L 515.691418 263.821204 
L 525.495097 264.262858 
L 535.298777 264.581367 
L 545.102457 264.809754 
L 554.906136 264.972538 
" clip-path="url(#p190dd463a4)" style="fill: none; stroke: #9467bd; stroke-width: 1.5; stroke-linecap: square"/>
   </g>
   <g id="line2d_44">
    <path d="M 349.028864 101.316995 
L 358.832543 161.408327 
L 368.636223 197.712548 
L 378.439903 220.070941 
L 388.243582 233.808274 
L 398.047262 242.127717 
L 407.850942 247.003821 
L 417.654621 249.66244 
L 427.458301 250.89224 
L 437.261981 251.228968 
L 447.06566 251.048403 
L 456.86934 254.799574 
L 466.673019 257.604319 
L 476.476699 259.691681 
L 486.280379 261.237675 
L 496.084058 262.376972 
L 505.887738 263.212188 
L 515.691418 263.821204 
L 525.495097 264.262858 
L 535.298777 264.581367 
L 545.102457 264.809754 
L 554.906136 264.972538 
" clip-path="url(#p190dd463a4)" style="fill: none; stroke: #8c564b; stroke-width: 1.5; stroke-linecap: square"/>
   </g>
   <g id="line2d_45">
    <path d="M 349.028864 101.316995 
L 358.832543 161.408327 
L 368.636223 197.712548 
L 378.439903 220.070941 
L 388.243582 233.808274 
L 398.047262 242.127717 
L 407.850942 247.003821 
L 417.654621 249.66244 
L 427.458301 250.89224 
L 437.261981 251.228968 
L 447.06566 251.048403 
L 456.86934 254.799574 
L 466.673019 257.604319 
L 476.476699 259.691681 
L 486.280379 261.237675 
L 496.084058 262.376972 
L 505.887738 263.212188 
L 515.691418 263.821204 
L 525.495097 264.262858 
L 535.298777 264.581367 
L 545.102457 264.809754 
L 554.906136 264.972538 
" clip-path="url(#p190dd463a4)" style="fill: none; stroke: #e377c2; stroke-width: 1.5; stroke-linecap: square"/>
   </g>
   <g id="line2d_46">
    <path d="M 349.028864 94.629885 
L 358.832543 154.779674 
L 368.636223 190.925447 
L 378.439903 212.987156 
L 388.243582 226.313935 
L 398.047262 234.09737 
L 407.850942 238.287382 
L 417.654621 243.111483 
L 427.458301 250.89224 
L 437.261981 251.228968 
L 447.06566 251.048403 
L 456.86934 254.799574 
L 466.673019 255.438438 
L 476.476699 253.550532 
L 486.280379 251.984751 
L 496.084058 250.784653 
L 505.887738 249.900946 
L 515.691418 249.264614 
L 525.495097 248.812272 
L 535.298777 248.493093 
L 545.102457 248.26882 
L 554.906136 248.11162 
" clip-path="url(#p190dd463a4)" style="fill: none; stroke: #7f7f7f; stroke-width: 1.5; stroke-linecap: square"/>
   </g>
   <g id="line2d_47">
    <path d="M 349.028864 63.135754 
L 358.832543 121.365827 
L 368.636223 156.02617 
L 378.439903 177.137165 
L 388.243582 195.313722 
L 398.047262 216.376173 
L 407.850942 231.79636 
L 417.654621 240.085642 
L 427.458301 240.262349 
L 437.261981 246.053713 
L 447.06566 251.048403 
L 456.86934 250.610774 
L 466.673019 250.086494 
L 476.476699 249.576718 
L 486.280379 249.132326 
L 496.084058 248.770955 
L 505.887738 248.49088 
L 515.691418 248.281085 
L 525.495097 248.127657 
L 535.298777 248.017272 
L 545.102457 247.938692 
L 554.906136 247.883112 
" clip-path="url(#p190dd463a4)" style="fill: none; stroke: #bcbd22; stroke-width: 1.5; stroke-linecap: square"/>
   </g>
   <g id="line2d_48">
    <path d="M 349.028864 42.083091 
L 358.832543 106.639236 
L 368.636223 146.3961 
L 378.439903 171.342149 
L 388.243582 190.123713 
L 398.047262 203.489456 
L 407.850942 219.031324 
L 417.654621 230.65946 
L 427.458301 239.428721 
L 437.261981 246.053713 
L 447.06566 251.048403 
L 456.86934 250.610774 
L 466.673019 250.086494 
L 476.476699 249.576718 
L 486.280379 249.132326 
L 496.084058 248.770955 
L 505.887738 248.49088 
L 515.691418 248.281085 
L 525.495097 248.127657 
L 535.298777 248.017272 
L 545.102457 247.938692 
L 554.906136 247.883112 
" clip-path="url(#p190dd463a4)" style="fill: none; stroke: #17becf; stroke-width: 1.5; stroke-linecap: square"/>
   </g>
   <g id="line2d_49">
    <path d="M 349.028864 42.083091 
L 358.832543 106.639236 
L 368.636223 146.3961 
L 378.439903 171.342149 
L 388.243582 186.973742 
L 398.047262 203.489456 
L 407.850942 219.031324 
L 417.654621 230.65946 
L 427.458301 239.428721 
L 437.261981 246.053713 
L 447.06566 251.048403 
L 456.86934 250.610774 
L 466.673019 250.086494 
L 476.476699 249.576718 
L 486.280379 249.132326 
L 496.084058 248.770955 
L 505.887738 248.49088 
L 515.691418 248.281085 
L 525.495097 248.127657 
L 535.298777 248.017272 
L 545.102457 247.938692 
L 554.906136 247.883112 
" clip-path="url(#p190dd463a4)" style="fill: none; stroke: #1f77b4; stroke-width: 1.5; stroke-linecap: square"/>
   </g>
   <g id="line2d_50">
    <path d="M 349.028864 42.083091 
L 358.832543 106.639236 
L 368.636223 146.3961 
L 378.439903 166.138546 
L 388.243582 186.973742 
L 398.047262 198.115463 
L 407.850942 219.031324 
L 417.654621 230.65946 
L 427.458301 239.428721 
L 437.261981 239.343317 
L 447.06566 237.706054 
L 456.86934 238.007381 
L 466.673019 240.674394 
L 476.476699 242.635922 
L 486.280379 244.071414 
L 496.084058 245.116748 
L 505.887738 245.874214 
L 515.691418 246.420408 
L 525.495097 246.812379 
L 535.298777 247.092364 
L 545.102457 247.291436 
L 554.906136 247.432316 
" clip-path="url(#p190dd463a4)" style="fill: none; stroke: #ff7f0e; stroke-width: 1.5; stroke-linecap: square"/>
   </g>
   <g id="patch_9">
    <path d="M 338.735 315.232 
L 338.735 29.076 
" style="fill: none; stroke: #000000; stroke-width: 0.8; stroke-linejoin: miter; stroke-linecap: square"/>
   </g>
   <g id="patch_10">
    <path d="M 565.2 315.232 
L 565.2 29.076 
" style="fill: none; stroke: #000000; stroke-width: 0.8; stroke-linejoin: miter; stroke-linecap: square"/>
   </g>
   <g id="patch_11">
    <path d="M 338.735 315.232 
L 565.2 315.232 
" style="fill: none; stroke: #000000; stroke-width: 0.8; stroke-linejoin: miter; stroke-linecap: square"/>
   </g>
   <g id="patch_12">
    <path d="M 338.735 29.076 
L 565.2 29.076 
" style="fill: none; stroke: #000000; stroke-width: 0.8; stroke-linejoin: miter; stroke-linecap: square"/>
   </g>
   <g id="text_36">
    <!-- $\mathrm{D_{2h}}$ $\mathrm{H_4}$ ($r_y = 1.4\ \mathrm{\AA}$) -->
    <g transform="translate(397.7875 23.076) scale(0.12 -0.12)">
     <defs>
      <path id="DejaVuSans-28" d="M 1984 4856 
Q 1566 4138 1362 3434 
Q 1159 2731 1159 2009 
Q 1159 1288 1364 580 
Q 1569 -128 1984 -844 
L 1484 -844 
Q 1016 -109 783 600 
Q 550 1309 550 2009 
Q 550 2706 781 3412 
Q 1013 4119 1484 4856 
L 1984 4856 
z
" transform="scale(0.015625)"/>
      <path id="DejaVuSans-Oblique-79" d="M 1588 -325 
Q 1188 -997 936 -1164 
Q 684 -1331 294 -1331 
L -159 -1331 
L -63 -850 
L 269 -850 
Q 509 -850 678 -719 
Q 847 -588 1056 -206 
L 1234 128 
L 459 3500 
L 1069 3500 
L 1650 819 
L 3256 3500 
L 3859 3500 
L 1588 -325 
z
" transform="scale(0.015625)"/>
      <path id="DejaVuSans-3d" d="M 678 2906 
L 4684 2906 
L 4684 2381 
L 678 2381 
L 678 2906 
z
M 678 1631 
L 4684 1631 
L 4684 1100 
L 678 1100 
L 678 1631 
z
" transform="scale(0.015625)"/>
      <path id="DejaVuSans-29" d="M 513 4856 
L 1013 4856 
Q 1481 4119 1714 3412 
Q 1947 2706 1947 2009 
Q 1947 1309 1714 600 
Q 1481 -109 1013 -844 
L 513 -844 
Q 928 -128 1133 580 
Q 1338 1288 1338 2009 
Q 1338 2731 1133 3434 
Q 928 4138 513 4856 
z
" transform="scale(0.015625)"/>
     </defs>
     <use xlink:href="#DejaVuSans-44" transform="translate(0 0.171875)"/>
     <use xlink:href="#DejaVuSans-32" transform="translate(77.958984 -16.234375) scale(0.7)"/>
     <use xlink:href="#DejaVuSans-68" transform="translate(122.495117 -16.234375) scale(0.7)"/>
     <use xlink:href="#DejaVuSans-20" transform="translate(169.594727 0.171875)"/>
     <use xlink:href="#DejaVuSans-48" transform="translate(201.381836 0.171875)"/>
     <use xlink:href="#DejaVuSans-34" transform="translate(277.53418 -16.234375) scale(0.7)"/>
     <use xlink:href="#DejaVuSans-20" transform="translate(324.804688 0.171875)"/>
     <use xlink:href="#DejaVuSans-28" transform="translate(356.591797 0.171875)"/>
     <use xlink:href="#DejaVuSans-Oblique-72" transform="translate(395.605469 0.171875)"/>
     <use xlink:href="#DejaVuSans-Oblique-79" transform="translate(436.71875 -16.234375) scale(0.7)"/>
     <use xlink:href="#DejaVuSans-3d" transform="translate(500.361328 0.171875)"/>
     <use xlink:href="#DejaVuSans-31" transform="translate(603.632812 0.171875)"/>
     <use xlink:href="#DejaVuSans-2e" transform="translate(667.255859 0.171875)"/>
     <use xlink:href="#DejaVuSans-34" transform="translate(699.042969 0.171875)"/>
     <use xlink:href="#DejaVuSans-c5" transform="translate(795.136394 0.171875)"/>
     <use xlink:href="#DejaVuSans-29" transform="translate(863.544597 0.171875)"/>
    </g>
   </g>
   <g id="legend_2">
    <g id="patch_13">
     <path d="M 484.965625 213.2135 
L 558.2 213.2135 
Q 560.2 213.2135 560.2 211.2135 
L 560.2 36.076 
Q 560.2 34.076 558.2 34.076 
L 484.965625 34.076 
Q 482.965625 34.076 482.965625 36.076 
L 482.965625 211.2135 
Q 482.965625 213.2135 484.965625 213.2135 
z
" style="fill: #ffffff; opacity: 0.8; stroke: #cccccc; stroke-linejoin: miter"/>
    </g>
    <g id="line2d_51">
     <path d="M 486.965625 42.174438 
L 496.965625 42.174438 
L 506.965625 42.174438 
" style="fill: none; stroke: #1f77b4; stroke-width: 1.5; stroke-linecap: square"/>
    </g>
    <g id="text_37">
     <!-- state 0 -->
     <g transform="translate(514.965625 45.674438) scale(0.1 -0.1)">
      <use xlink:href="#DejaVuSans-73"/>
      <use xlink:href="#DejaVuSans-74" x="52.099609"/>
      <use xlink:href="#DejaVuSans-61" x="91.308594"/>
      <use xlink:href="#DejaVuSans-74" x="152.587891"/>
      <use xlink:href="#DejaVuSans-65" x="191.796875"/>
      <use xlink:href="#DejaVuSans-20" x="253.320312"/>
      <use xlink:href="#DejaVuSans-30" x="285.107422"/>
     </g>
    </g>
    <g id="line2d_52">
     <path d="M 486.965625 56.852563 
L 496.965625 56.852563 
L 506.965625 56.852563 
" style="fill: none; stroke: #ff7f0e; stroke-width: 1.5; stroke-linecap: square"/>
    </g>
    <g id="text_38">
     <!-- state 1 -->
     <g transform="translate(514.965625 60.352563) scale(0.1 -0.1)">
      <use xlink:href="#DejaVuSans-73"/>
      <use xlink:href="#DejaVuSans-74" x="52.099609"/>
      <use xlink:href="#DejaVuSans-61" x="91.308594"/>
      <use xlink:href="#DejaVuSans-74" x="152.587891"/>
      <use xlink:href="#DejaVuSans-65" x="191.796875"/>
      <use xlink:href="#DejaVuSans-20" x="253.320312"/>
      <use xlink:href="#DejaVuSans-31" x="285.107422"/>
     </g>
    </g>
    <g id="line2d_53">
     <path d="M 486.965625 71.530688 
L 496.965625 71.530688 
L 506.965625 71.530688 
" style="fill: none; stroke: #2ca02c; stroke-width: 1.5; stroke-linecap: square"/>
    </g>
    <g id="text_39">
     <!-- state 2 -->
     <g transform="translate(514.965625 75.030688) scale(0.1 -0.1)">
      <use xlink:href="#DejaVuSans-73"/>
      <use xlink:href="#DejaVuSans-74" x="52.099609"/>
      <use xlink:href="#DejaVuSans-61" x="91.308594"/>
      <use xlink:href="#DejaVuSans-74" x="152.587891"/>
      <use xlink:href="#DejaVuSans-65" x="191.796875"/>
      <use xlink:href="#DejaVuSans-20" x="253.320312"/>
      <use xlink:href="#DejaVuSans-32" x="285.107422"/>
     </g>
    </g>
    <g id="line2d_54">
     <path d="M 486.965625 86.208813 
L 496.965625 86.208813 
L 506.965625 86.208813 
" style="fill: none; stroke: #d62728; stroke-width: 1.5; stroke-linecap: square"/>
    </g>
    <g id="text_40">
     <!-- state 3 -->
     <g transform="translate(514.965625 89.708813) scale(0.1 -0.1)">
      <use xlink:href="#DejaVuSans-73"/>
      <use xlink:href="#DejaVuSans-74" x="52.099609"/>
      <use xlink:href="#DejaVuSans-61" x="91.308594"/>
      <use xlink:href="#DejaVuSans-74" x="152.587891"/>
      <use xlink:href="#DejaVuSans-65" x="191.796875"/>
      <use xlink:href="#DejaVuSans-20" x="253.320312"/>
      <use xlink:href="#DejaVuSans-33" x="285.107422"/>
     </g>
    </g>
    <g id="line2d_55">
     <path d="M 486.965625 100.886938 
L 496.965625 100.886938 
L 506.965625 100.886938 
" style="fill: none; stroke: #9467bd; stroke-width: 1.5; stroke-linecap: square"/>
    </g>
    <g id="text_41">
     <!-- state 4 -->
     <g transform="translate(514.965625 104.386938) scale(0.1 -0.1)">
      <use xlink:href="#DejaVuSans-73"/>
      <use xlink:href="#DejaVuSans-74" x="52.099609"/>
      <use xlink:href="#DejaVuSans-61" x="91.308594"/>
      <use xlink:href="#DejaVuSans-74" x="152.587891"/>
      <use xlink:href="#DejaVuSans-65" x="191.796875"/>
      <use xlink:href="#DejaVuSans-20" x="253.320312"/>
      <use xlink:href="#DejaVuSans-34" x="285.107422"/>
     </g>
    </g>
    <g id="line2d_56">
     <path d="M 486.965625 115.565063 
L 496.965625 115.565063 
L 506.965625 115.565063 
" style="fill: none; stroke: #8c564b; stroke-width: 1.5; stroke-linecap: square"/>
    </g>
    <g id="text_42">
     <!-- state 5 -->
     <g transform="translate(514.965625 119.065063) scale(0.1 -0.1)">
      <use xlink:href="#DejaVuSans-73"/>
      <use xlink:href="#DejaVuSans-74" x="52.099609"/>
      <use xlink:href="#DejaVuSans-61" x="91.308594"/>
      <use xlink:href="#DejaVuSans-74" x="152.587891"/>
      <use xlink:href="#DejaVuSans-65" x="191.796875"/>
      <use xlink:href="#DejaVuSans-20" x="253.320312"/>
      <use xlink:href="#DejaVuSans-35" x="285.107422"/>
     </g>
    </g>
    <g id="line2d_57">
     <path d="M 486.965625 130.243188 
L 496.965625 130.243188 
L 506.965625 130.243188 
" style="fill: none; stroke: #e377c2; stroke-width: 1.5; stroke-linecap: square"/>
    </g>
    <g id="text_43">
     <!-- state 6 -->
     <g transform="translate(514.965625 133.743188) scale(0.1 -0.1)">
      <use xlink:href="#DejaVuSans-73"/>
      <use xlink:href="#DejaVuSans-74" x="52.099609"/>
      <use xlink:href="#DejaVuSans-61" x="91.308594"/>
      <use xlink:href="#DejaVuSans-74" x="152.587891"/>
      <use xlink:href="#DejaVuSans-65" x="191.796875"/>
      <use xlink:href="#DejaVuSans-20" x="253.320312"/>
      <use xlink:href="#DejaVuSans-36" x="285.107422"/>
     </g>
    </g>
    <g id="line2d_58">
     <path d="M 486.965625 144.921313 
L 496.965625 144.921313 
L 506.965625 144.921313 
" style="fill: none; stroke: #7f7f7f; stroke-width: 1.5; stroke-linecap: square"/>
    </g>
    <g id="text_44">
     <!-- state 7 -->
     <g transform="translate(514.965625 148.421313) scale(0.1 -0.1)">
      <use xlink:href="#DejaVuSans-73"/>
      <use xlink:href="#DejaVuSans-74" x="52.099609"/>
      <use xlink:href="#DejaVuSans-61" x="91.308594"/>
      <use xlink:href="#DejaVuSans-74" x="152.587891"/>
      <use xlink:href="#DejaVuSans-65" x="191.796875"/>
      <use xlink:href="#DejaVuSans-20" x="253.320312"/>
      <use xlink:href="#DejaVuSans-37" x="285.107422"/>
     </g>
    </g>
    <g id="line2d_59">
     <path d="M 486.965625 159.599438 
L 496.965625 159.599438 
L 506.965625 159.599438 
" style="fill: none; stroke: #bcbd22; stroke-width: 1.5; stroke-linecap: square"/>
    </g>
    <g id="text_45">
     <!-- state 8 -->
     <g transform="translate(514.965625 163.099438) scale(0.1 -0.1)">
      <use xlink:href="#DejaVuSans-73"/>
      <use xlink:href="#DejaVuSans-74" x="52.099609"/>
      <use xlink:href="#DejaVuSans-61" x="91.308594"/>
      <use xlink:href="#DejaVuSans-74" x="152.587891"/>
      <use xlink:href="#DejaVuSans-65" x="191.796875"/>
      <use xlink:href="#DejaVuSans-20" x="253.320312"/>
      <use xlink:href="#DejaVuSans-38" x="285.107422"/>
     </g>
    </g>
    <g id="line2d_60">
     <path d="M 486.965625 174.277563 
L 496.965625 174.277563 
L 506.965625 174.277563 
" style="fill: none; stroke: #17becf; stroke-width: 1.5; stroke-linecap: square"/>
    </g>
    <g id="text_46">
     <!-- state 9 -->
     <g transform="translate(514.965625 177.777563) scale(0.1 -0.1)">
      <defs>
       <path id="DejaVuSans-39" d="M 703 97 
L 703 672 
Q 941 559 1184 500 
Q 1428 441 1663 441 
Q 2288 441 2617 861 
Q 2947 1281 2994 2138 
Q 2813 1869 2534 1725 
Q 2256 1581 1919 1581 
Q 1219 1581 811 2004 
Q 403 2428 403 3163 
Q 403 3881 828 4315 
Q 1253 4750 1959 4750 
Q 2769 4750 3195 4129 
Q 3622 3509 3622 2328 
Q 3622 1225 3098 567 
Q 2575 -91 1691 -91 
Q 1453 -91 1209 -44 
Q 966 3 703 97 
z
M 1959 2075 
Q 2384 2075 2632 2365 
Q 2881 2656 2881 3163 
Q 2881 3666 2632 3958 
Q 2384 4250 1959 4250 
Q 1534 4250 1286 3958 
Q 1038 3666 1038 3163 
Q 1038 2656 1286 2365 
Q 1534 2075 1959 2075 
z
" transform="scale(0.015625)"/>
      </defs>
      <use xlink:href="#DejaVuSans-73"/>
      <use xlink:href="#DejaVuSans-74" x="52.099609"/>
      <use xlink:href="#DejaVuSans-61" x="91.308594"/>
      <use xlink:href="#DejaVuSans-74" x="152.587891"/>
      <use xlink:href="#DejaVuSans-65" x="191.796875"/>
      <use xlink:href="#DejaVuSans-20" x="253.320312"/>
      <use xlink:href="#DejaVuSans-39" x="285.107422"/>
     </g>
    </g>
    <g id="line2d_61">
     <path d="M 486.965625 188.955688 
L 496.965625 188.955688 
L 506.965625 188.955688 
" style="fill: none; stroke: #1f77b4; stroke-width: 1.5; stroke-linecap: square"/>
    </g>
    <g id="text_47">
     <!-- state 10 -->
     <g transform="translate(514.965625 192.455688) scale(0.1 -0.1)">
      <use xlink:href="#DejaVuSans-73"/>
      <use xlink:href="#DejaVuSans-74" x="52.099609"/>
      <use xlink:href="#DejaVuSans-61" x="91.308594"/>
      <use xlink:href="#DejaVuSans-74" x="152.587891"/>
      <use xlink:href="#DejaVuSans-65" x="191.796875"/>
      <use xlink:href="#DejaVuSans-20" x="253.320312"/>
      <use xlink:href="#DejaVuSans-31" x="285.107422"/>
      <use xlink:href="#DejaVuSans-30" x="348.730469"/>
     </g>
    </g>
    <g id="line2d_62">
     <path d="M 486.965625 203.633813 
L 496.965625 203.633813 
L 506.965625 203.633813 
" style="fill: none; stroke: #ff7f0e; stroke-width: 1.5; stroke-linecap: square"/>
    </g>
    <g id="text_48">
     <!-- state 11 -->
     <g transform="translate(514.965625 207.133813) scale(0.1 -0.1)">
      <use xlink:href="#DejaVuSans-73"/>
      <use xlink:href="#DejaVuSans-74" x="52.099609"/>
      <use xlink:href="#DejaVuSans-61" x="91.308594"/>
      <use xlink:href="#DejaVuSans-74" x="152.587891"/>
      <use xlink:href="#DejaVuSans-65" x="191.796875"/>
      <use xlink:href="#DejaVuSans-20" x="253.320312"/>
      <use xlink:href="#DejaVuSans-31" x="285.107422"/>
      <use xlink:href="#DejaVuSans-31" x="348.730469"/>
     </g>
    </g>
   </g>
  </g>
 </g>
 <defs>
  <clipPath id="pae20b06e48">
   <rect x="56.135" y="29.076" width="226.465" height="286.156"/>
  </clipPath>
  <clipPath id="p190dd463a4">
   <rect x="338.735" y="29.076" width="226.465" height="286.156"/>
  </clipPath>
 </defs>
</svg>
