<svg xmlns="http://www.w3.org/2000/svg" width="384" height="144"><style>line, path, circle, rect, polygon{stroke:black;stroke-width:2;stroke-opacity:1;fill-opacity:1;stroke-linecap:round;stroke-linejoin:miter;}text{font-family:Iosevka Fixed, monospace;font-size:14px;}rect.backdrop{stroke:none;fill:white;}.broken{stroke-dasharray:8;}.filled{fill:black;}.bg_filled{fill:white;}.nofill{fill:white;}.end_marked_arrow{marker-end:url(#arrow);}.start_marked_arrow{marker-start:url(#arrow);}.end_marked_diamond{marker-end:url(#diamond);}.start_marked_diamond{marker-start:url(#diamond);}.end_marked_circle{marker-end:url(#circle);}.start_marked_circle{marker-start:url(#circle);}.end_marked_open_circle{marker-end:url(#open_circle);}.start_marked_open_circle{marker-start:url(#open_circle);}.end_marked_big_open_circle{marker-end:url(#big_open_circle);}.start_marked_big_open_circle{marker-start:url(#big_open_circle);}<!--separator--></style><defs><marker id="arrow" viewBox="-2 -2 8 8" refX="4" refY="2" markerWidth="7" markerHeight="7" orient="auto-start-reverse"><polygon points="0,0 0,4 4,2 0,0"></polygon></marker><marker id="diamond" viewBox="-2 -2 8 8" refX="4" refY="2" markerWidth="7" markerHeight="7" orient="auto-start-reverse"><polygon points="0,2 2,0 4,2 2,4 0,2"></polygon></marker><marker id="circle" viewBox="0 0 8 8" refX="4" refY="4" markerWidth="7" markerHeight="7" orient="auto-start-reverse"><circle cx="4" cy="4" r="2" class="filled"></circle></marker><marker id="open_circle" viewBox="0 0 8 8" refX="4" refY="4" markerWidth="7" markerHeight="7" orient="auto-start-reverse"><circle cx="4" cy="4" r="2" class="bg_filled"></circle></marker><marker id="big_open_circle" viewBox="0 0 8 8" refX="4" refY="4" markerWidth="7" markerHeight="7" orient="auto-start-reverse"><circle cx="4" cy="4" r="3" class="bg_filled"></circle></marker></defs><rect class="backdrop" x="0" y="0" width="384" height="144"></rect><text x="26" y="28" >11111110</text><text x="2" y="44" >+</text><text x="26" y="44" >00000010</text><line x1="0" y1="56" x2="88" y2="56" class="solid"></line><text x="10" y="76" >1</text><text x="26" y="76" >00000000</text><text x="82" y="92" >1</text><line x1="0" y1="104" x2="88" y2="104" class="solid"></line><text x="26" y="124" >00000001</text><text x="130" y="44" >+2</text><line x1="128" y1="56" x2="144" y2="56" class="solid"></line><text x="138" y="76" >0</text><text x="130" y="92" >+1</text><line x1="128" y1="104" x2="144" y2="104" class="solid"></line><text x="138" y="124" >1</text><text x="202" y="76" >Not</text><text x="202" y="92" >Add</text><text x="234" y="76" >the</text><text x="266" y="76" >correct</text><text x="234" y="92" >carry</text><text x="330" y="76" >answer</text><text x="202" y="124" >Correct</text><text x="266" y="124" >answer</text><text x="26" y="12" >binary</text><text x="122" y="12" >decimal</text><g><text x="130" y="28">−</text><text x="138" y="28">1</text></g><g><polygon points="176,68 168,72 176,76" class="filled"></polygon><line x1="176" y1="72" x2="192" y2="72" class="solid"></line></g><g><polygon points="176,84 168,88 176,92" class="filled"></polygon><line x1="176" y1="88" x2="192" y2="88" class="solid"></line></g><g><polygon points="176,116 168,120 176,124" class="filled"></polygon><line x1="176" y1="120" x2="192" y2="120" class="solid"></line></g></svg>