<svg xmlns="http://www.w3.org/2000/svg" width="456" height="288"><style>line, path, circle, rect, polygon{stroke:black;stroke-width:2;stroke-opacity:1;fill-opacity:1;stroke-linecap:round;stroke-linejoin:miter;}text{font-family:Iosevka Fixed, monospace;font-size:14px;}rect.backdrop{stroke:none;fill:white;}.broken{stroke-dasharray:8;}.filled{fill:black;}.bg_filled{fill:white;}.nofill{fill:white;}.end_marked_arrow{marker-end:url(#arrow);}.start_marked_arrow{marker-start:url(#arrow);}.end_marked_diamond{marker-end:url(#diamond);}.start_marked_diamond{marker-start:url(#diamond);}.end_marked_circle{marker-end:url(#circle);}.start_marked_circle{marker-start:url(#circle);}.end_marked_open_circle{marker-end:url(#open_circle);}.start_marked_open_circle{marker-start:url(#open_circle);}.end_marked_big_open_circle{marker-end:url(#big_open_circle);}.start_marked_big_open_circle{marker-start:url(#big_open_circle);}<!--separator--></style><defs><marker id="arrow" viewBox="-2 -2 8 8" refX="4" refY="2" markerWidth="7" markerHeight="7" orient="auto-start-reverse"><polygon points="0,0 0,4 4,2 0,0"></polygon></marker><marker id="diamond" viewBox="-2 -2 8 8" refX="4" refY="2" markerWidth="7" markerHeight="7" orient="auto-start-reverse"><polygon points="0,2 2,0 4,2 2,4 0,2"></polygon></marker><marker id="circle" viewBox="0 0 8 8" refX="4" refY="4" markerWidth="7" markerHeight="7" orient="auto-start-reverse"><circle cx="4" cy="4" r="2" class="filled"></circle></marker><marker id="open_circle" viewBox="0 0 8 8" refX="4" refY="4" markerWidth="7" markerHeight="7" orient="auto-start-reverse"><circle cx="4" cy="4" r="2" class="bg_filled"></circle></marker><marker id="big_open_circle" viewBox="0 0 8 8" refX="4" refY="4" markerWidth="7" markerHeight="7" orient="auto-start-reverse"><circle cx="4" cy="4" r="3" class="bg_filled"></circle></marker></defs><rect class="backdrop" x="0" y="0" width="456" height="288"></rect><text x="218" y="60" >0000</text><text x="258" y="60" >0000</text><line x1="376" y1="56" x2="384" y2="56" class="solid"></line><text x="218" y="76" >0000</text><text x="258" y="76" >0001</text><text x="346" y="76" >1111</text><text x="386" y="76" >1111</text><text x="218" y="92" >0000</text><text x="258" y="92" >0010</text><text x="346" y="92" >1111</text><text x="386" y="92" >1110</text><text x="218" y="108" >0000</text><text x="258" y="108" >0011</text><text x="346" y="108" >1111</text><text x="386" y="108" >1101</text><text x="218" y="124" >0000</text><text x="258" y="124" >0100</text><text x="346" y="124" >1111</text><text x="386" y="124" >1100</text><text x="218" y="140" >0000</text><text x="258" y="140" >0101</text><text x="346" y="140" >1111</text><text x="386" y="140" >1011</text><text x="218" y="156" >0000</text><text x="258" y="156" >0110</text><text x="346" y="156" >1111</text><text x="386" y="156" >1010</text><text x="218" y="172" >0000</text><text x="258" y="172" >0111</text><text x="346" y="172" >1111</text><text x="386" y="172" >1001</text><text x="218" y="188" >0000</text><text x="258" y="188" >1000</text><text x="346" y="188" >1111</text><text x="386" y="188" >1000</text><text x="218" y="204" >0000</text><text x="258" y="204" >1001</text><text x="346" y="204" >1111</text><text x="386" y="204" >0111</text><text x="218" y="220" >0000</text><text x="258" y="220" >1010</text><text x="346" y="220" >1111</text><text x="386" y="220" >0110</text><text x="218" y="236" >0000</text><text x="258" y="236" >1011</text><text x="346" y="236" >1111</text><text x="386" y="236" >0101</text><text x="10" y="28" >Magnitude of Decimal</text><text x="194" y="28" >Positive Case</text><text x="322" y="28" >Negative Case</text><text x="82" y="60" >0</text><text x="82" y="76" >1</text><text x="82" y="92" >2</text><text x="82" y="108" >3</text><text x="82" y="124" >4</text><text x="82" y="140" >5</text><text x="82" y="156" >6</text><text x="82" y="172" >7</text><text x="82" y="188" >8</text><text x="82" y="204" >9</text><text x="74" y="220" >10</text><text x="74" y="236" >11</text><text x="66" y="252" >...</text><text x="258" y="252" >...</text><text x="386" y="252" >...</text><g><path d="M 8,8 A 4,4 0,0,0 4,12" class="nofill"></path><line x1="4" y1="12" x2="4" y2="264" class="solid"></line><line x1="8" y1="8" x2="440" y2="8" class="solid"></line><line x1="188" y1="8" x2="188" y2="264" class="solid"></line><line x1="316" y1="8" x2="316" y2="264" class="solid"></line><path d="M 440,8 A 4,4 0,0,1 444,12" class="nofill"></path><line x1="444" y1="12" x2="444" y2="264" class="solid"></line><line x1="4" y1="40" x2="444" y2="40" class="solid"></line><line x1="4" y1="264" x2="444" y2="264" class="solid"></line></g></svg>