<svg xmlns="http://www.w3.org/2000/svg" width="536" height="176"><style>line, path, circle, rect, polygon{stroke:black;stroke-width:2;stroke-opacity:1;fill-opacity:1;stroke-linecap:round;stroke-linejoin:miter;}text{font-family:Iosevka Fixed, monospace;font-size:14px;}rect.backdrop{stroke:none;fill:white;}.broken{stroke-dasharray:8;}.filled{fill:black;}.bg_filled{fill:white;}.nofill{fill:white;}.end_marked_arrow{marker-end:url(#arrow);}.start_marked_arrow{marker-start:url(#arrow);}.end_marked_diamond{marker-end:url(#diamond);}.start_marked_diamond{marker-start:url(#diamond);}.end_marked_circle{marker-end:url(#circle);}.start_marked_circle{marker-start:url(#circle);}.end_marked_open_circle{marker-end:url(#open_circle);}.start_marked_open_circle{marker-start:url(#open_circle);}.end_marked_big_open_circle{marker-end:url(#big_open_circle);}.start_marked_big_open_circle{marker-start:url(#big_open_circle);}<!--separator--></style><defs><marker id="arrow" viewBox="-2 -2 8 8" refX="4" refY="2" markerWidth="7" markerHeight="7" orient="auto-start-reverse"><polygon points="0,0 0,4 4,2 0,0"></polygon></marker><marker id="diamond" viewBox="-2 -2 8 8" refX="4" refY="2" markerWidth="7" markerHeight="7" orient="auto-start-reverse"><polygon points="0,2 2,0 4,2 2,4 0,2"></polygon></marker><marker id="circle" viewBox="0 0 8 8" refX="4" refY="4" markerWidth="7" markerHeight="7" orient="auto-start-reverse"><circle cx="4" cy="4" r="2" class="filled"></circle></marker><marker id="open_circle" viewBox="0 0 8 8" refX="4" refY="4" markerWidth="7" markerHeight="7" orient="auto-start-reverse"><circle cx="4" cy="4" r="2" class="bg_filled"></circle></marker><marker id="big_open_circle" viewBox="0 0 8 8" refX="4" refY="4" markerWidth="7" markerHeight="7" orient="auto-start-reverse"><circle cx="4" cy="4" r="3" class="bg_filled"></circle></marker></defs><rect class="backdrop" x="0" y="0" width="536" height="176"></rect><text x="18" y="12" >MSB</text><text x="10" y="76" >Bit</text><text x="42" y="76" >7</text><text x="58" y="76" >Bit</text><text x="90" y="76" >6</text><text x="106" y="76" >Bit</text><text x="138" y="76" >5</text><text x="154" y="76" >Bit</text><text x="186" y="76" >4</text><text x="202" y="76" >Bit</text><text x="234" y="76" >3</text><text x="250" y="76" >Bit</text><text x="282" y="76" >2</text><text x="298" y="76" >Bit</text><text x="330" y="76" >1</text><text x="346" y="76" >Bit</text><text x="378" y="76" >0</text><text x="402" y="76" >Decimal</text><text x="466" y="76" >Number</text><text x="26" y="108" >1</text><text x="74" y="108" >1</text><text x="122" y="108" >1</text><text x="170" y="108" >1</text><text x="218" y="108" >0</text><text x="266" y="108" >0</text><text x="314" y="108" >1</text><text x="362" y="108" >1</text><line x1="16" y1="136" x2="24" y2="136" class="solid"></line><text x="26" y="140" >128</text><text x="66" y="140" >64</text><text x="114" y="140" >32</text><text x="162" y="140" >16</text><text x="218" y="140" >8</text><text x="266" y="140" >4</text><text x="314" y="140" >2</text><text x="362" y="140" >1</text><line x1="440" y1="120" x2="448" y2="120" class="solid"></line><text x="450" y="124" >13</text><g><line x1="28" y1="16" x2="28" y2="36" class="solid"></line><polygon points="24,36 32,36 28,48" class="filled"></polygon></g><g><path d="M 8,56 A 4,4 0,0,0 4,60" class="nofill"></path><line x1="4" y1="60" x2="4" y2="148" class="solid"></line><line x1="8" y1="56" x2="520" y2="56" class="solid"></line><line x1="52" y1="56" x2="52" y2="152" class="solid"></line><line x1="100" y1="56" x2="100" y2="152" class="solid"></line><line x1="148" y1="56" x2="148" y2="152" class="solid"></line><line x1="196" y1="56" x2="196" y2="152" class="solid"></line><line x1="244" y1="56" x2="244" y2="152" class="solid"></line><line x1="292" y1="56" x2="292" y2="152" class="solid"></line><line x1="340" y1="56" x2="340" y2="152" class="solid"></line><line x1="388" y1="56" x2="388" y2="152" class="solid"></line><path d="M 520,56 A 4,4 0,0,1 524,60" class="nofill"></path><line x1="524" y1="60" x2="524" y2="148" class="solid"></line><line x1="4" y1="88" x2="524" y2="88" class="solid"></line><line x1="4" y1="120" x2="388" y2="120" class="solid"></line><path d="M 4,148 A 4,4 0,0,0 8,152" class="nofill"></path><line x1="8" y1="152" x2="520" y2="152" class="solid"></line><path d="M 524,148 A 4,4 0,0,1 520,152" class="nofill"></path></g></svg>